<svg xmlns="http://www.w3.org/2000/svg" viewBox="0 0 723.27 388.61"><g id="freepik--background-complete--inject-94"><g><g><path d="M140.21,157.31s.01-.27,.02-.79c0-.53,0-1.29,.02-2.28,0-2.01,.02-4.95,.03-8.74,.02-7.59,.04-18.57,.07-32.18,.03-27.2,.06-64.91,.1-107.01l-.24,.24c2.94,0,6.1,0,9.27,0,.2,0,.41,0,.6,0l-.24-.24c.07,69.26,.14,128.12,.16,149.74l.07-.08c-3.27,.44-5.73,.77-7.37,.99-.82,.11-1.43,.2-1.85,.25-.41,.06-.63,.09-.63,.09,0,0,.2-.02,.6-.06,.42-.05,1.03-.12,1.84-.22,1.66-.2,4.14-.5,7.44-.9h.07v-.08c.02-21.62,.09-80.48,.16-149.74v-.24h-.84c-3.18,0-6.33,0-9.27,0h-.24v.24c.04,42.18,.08,79.96,.1,107.2,.03,13.59,.05,24.54,.07,32.12,.01,3.76,.02,6.69,.03,8.68,0,.98,.01,1.73,.02,2.24,0,.5,.02,.75,.02,.75Z" style="fill:#ebebeb;"></path><path d="M85.72,156.87s.01-.27,.02-.78c0-.52,0-1.28,.02-2.27,0-2,.02-4.93,.03-8.71,.02-7.57,.04-18.51,.07-32.08,.03-27.12,.06-64.72,.1-106.72l-.24,.24c3.03,0,6.28,0,9.55,0h0l-.24-.24c.07,69.89,.14,129.28,.16,150.56l.08-.08c-3.19,.02-5.57,.04-7.16,.05-.79,0-1.38,.01-1.79,.02-.4,0-.61,.02-.61,.02,0,0,.19,0,.58,.02,.41,0,.99,.01,1.77,.02,1.61,.01,4,.03,7.21,.05h.08v-.08c.02-21.28,.09-80.67,.16-150.56v-.24h-.25c-3.27,0-6.52,0-9.55,0h-.24v.24c.04,42.07,.08,79.73,.1,106.9,.03,13.55,.06,24.47,.07,32.02,.01,3.75,.03,6.66,.03,8.65,0,.98,.01,1.72,.02,2.24,0,.5,.02,.75,.02,.75Z" style="fill:#ebebeb;"></path><path d="M60.47,66.35c0,.13,25.96,.24,57.97,.24s57.97-.11,57.97-.24-25.95-.24-57.97-.24-57.97,.11-57.97,.24Z" style="fill:#ebebeb;"></path><path d="M60.47,48.24c0,.13,25.96,.24,57.97,.24s57.97-.11,57.97-.24-25.95-.24-57.97-.24-57.97,.11-57.97,.24Z" style="fill:#ebebeb;"></path><path d="M60.47,30.14c0,.13,25.96,.24,57.97,.24s57.97-.11,57.97-.24-25.95-.24-57.97-.24-57.97,.11-57.97,.24Z" style="fill:#ebebeb;"></path><path d="M60.47,12.03c0,.13,25.96,.24,57.97,.24s57.97-.11,57.97-.24-25.95-.24-57.97-.24-57.97,.11-57.97,.24Z" style="fill:#ebebeb;"></path><g><path d="M167.63,67.32c0,4.17,3.38,7.55,7.55,7.55s7.55-3.38,7.55-7.55-3.38-7.55-7.55-7.55-7.55,3.38-7.55,7.55Z" style="fill:#fafafa;"></path><path d="M167.17,67.32c0-4.42,3.59-8.01,8.01-8.01s8.01,3.59,8.01,8.01-3.59,8.01-8.01,8.01-8.01-3.59-8.01-8.01Zm.92,0c0,3.91,3.18,7.09,7.09,7.09s7.09-3.18,7.09-7.09-3.18-7.09-7.09-7.09-7.09,3.18-7.09,7.09Z" style="fill:#ebebeb;"></path></g><g><circle cx="156" cy="67.32" r="7.55" style="fill:#fafafa;"></circle><path d="M147.99,67.32c0-4.42,3.59-8.01,8.01-8.01s8.01,3.59,8.01,8.01-3.59,8.01-8.01,8.01-8.01-3.59-8.01-8.01Zm.92,0c0,3.91,3.18,7.09,7.09,7.09s7.09-3.18,7.09-7.09-3.18-7.09-7.09-7.09-7.09,3.18-7.09,7.09Z" style="fill:#ebebeb;"></path></g><g><path d="M129.28,67.32c0,4.17,3.38,7.55,7.55,7.55s7.55-3.38,7.55-7.55-3.38-7.55-7.55-7.55-7.55,3.38-7.55,7.55Z" style="fill:#fafafa;"></path><path d="M128.82,67.32c0-4.42,3.59-8.01,8.01-8.01s8.01,3.59,8.01,8.01-3.59,8.01-8.01,8.01-8.01-3.59-8.01-8.01Zm.92,0c0,3.91,3.18,7.09,7.09,7.09s7.09-3.18,7.09-7.09-3.18-7.09-7.09-7.09-7.09,3.18-7.09,7.09Z" style="fill:#ebebeb;"></path></g><g><circle cx="117.65" cy="67.32" r="7.55" style="fill:#fafafa;"></circle><path d="M109.64,67.32c0-4.42,3.59-8.01,8.01-8.01s8.01,3.59,8.01,8.01-3.59,8.01-8.01,8.01-8.01-3.59-8.01-8.01Zm.92,0c0,3.91,3.18,7.09,7.09,7.09s7.09-3.18,7.09-7.09-3.18-7.09-7.09-7.09-7.09,3.18-7.09,7.09Z" style="fill:#ebebeb;"></path></g><g><circle cx="98.47" cy="67.32" r="7.55" style="fill:#fafafa;"></circle><path d="M90.47,67.32c0-4.42,3.59-8.01,8.01-8.01s8.01,3.59,8.01,8.01-3.59,8.01-8.01,8.01-8.01-3.59-8.01-8.01Zm.92,0c0,3.91,3.18,7.09,7.09,7.09s7.09-3.18,7.09-7.09-3.18-7.09-7.09-7.09-7.09,3.18-7.09,7.09Z" style="fill:#ebebeb;"></path></g><g><circle cx="79.3" cy="67.32" r="7.55" style="fill:#fafafa;"></circle><path d="M71.29,67.32c0-4.42,3.59-8.01,8.01-8.01s8.01,3.59,8.01,8.01-3.59,8.01-8.01,8.01-8.01-3.59-8.01-8.01Zm.92,0c0,3.91,3.18,7.09,7.09,7.09s7.09-3.18,7.09-7.09-3.18-7.09-7.09-7.09-7.09,3.18-7.09,7.09Z" style="fill:#ebebeb;"></path></g><g><circle cx="60.12" cy="67.32" r="7.55" style="fill:#fafafa;"></circle><path d="M52.11,67.32c0-4.42,3.59-8.01,8.01-8.01s8.01,3.59,8.01,8.01-3.59,8.01-8.01,8.01-8.01-3.59-8.01-8.01Zm.92,0c0,3.91,3.18,7.09,7.09,7.09s7.09-3.18,7.09-7.09-3.18-7.09-7.09-7.09-7.09,3.18-7.09,7.09Z" style="fill:#ebebeb;"></path></g><g><g><circle cx="156" cy="48.73" r="7.55" transform="translate(72.73 189.37) rotate(-76.72)" style="fill:#fafafa;"></circle><path d="M147.99,48.73c0-4.42,3.59-8.01,8.01-8.01s8.01,3.59,8.01,8.01-3.59,8.01-8.01,8.01-8.01-3.59-8.01-8.01Zm.92,0c0,3.91,3.18,7.09,7.09,7.09s7.09-3.18,7.09-7.09-3.18-7.09-7.09-7.09-7.09,3.18-7.09,7.09Z" style="fill:#ebebeb;"></path></g><g><path d="M129.28,48.73c0,4.17,3.38,7.55,7.55,7.55s7.55-3.38,7.55-7.55-3.38-7.55-7.55-7.55-7.55,3.38-7.55,7.55Z" style="fill:#fafafa;"></path><path d="M128.82,48.73c0-4.42,3.59-8.01,8.01-8.01s8.01,3.59,8.01,8.01-3.59,8.01-8.01,8.01-8.01-3.59-8.01-8.01Zm.92,0c0,3.91,3.18,7.09,7.09,7.09s7.09-3.18,7.09-7.09-3.18-7.09-7.09-7.09-7.09,3.18-7.09,7.09Z" style="fill:#ebebeb;"></path></g><g><circle cx="117.65" cy="48.73" r="7.55" transform="translate(43.19 152.04) rotate(-76.72)" style="fill:#fafafa;"></circle><path d="M109.64,48.73c0-4.42,3.59-8.01,8.01-8.01s8.01,3.59,8.01,8.01-3.59,8.01-8.01,8.01-8.01-3.59-8.01-8.01Zm.92,0c0,3.91,3.18,7.09,7.09,7.09s7.09-3.18,7.09-7.09-3.18-7.09-7.09-7.09-7.09,3.18-7.09,7.09Z" style="fill:#ebebeb;"></path></g><g><circle cx="98.47" cy="48.73" r="7.55" transform="translate(-6.53 16.4) rotate(-9.22)" style="fill:#fafafa;"></circle><path d="M90.47,48.73c0-4.42,3.59-8.01,8.01-8.01s8.01,3.59,8.01,8.01-3.59,8.01-8.01,8.01-8.01-3.59-8.01-8.01Zm.92,0c0,3.91,3.18,7.09,7.09,7.09s7.09-3.18,7.09-7.09-3.18-7.09-7.09-7.09-7.09,3.18-7.09,7.09Z" style="fill:#ebebeb;"></path></g><g><circle cx="79.3" cy="48.73" r="7.55" transform="translate(-2.18 93.73) rotate(-60.48)" style="fill:#fafafa;"></circle><path d="M71.29,48.73c0-4.42,3.59-8.01,8.01-8.01s8.01,3.59,8.01,8.01-3.59,8.01-8.01,8.01-8.01-3.59-8.01-8.01Zm.92,0c0,3.91,3.18,7.09,7.09,7.09s7.09-3.18,7.09-7.09-3.18-7.09-7.09-7.09-7.09,3.18-7.09,7.09Z" style="fill:#ebebeb;"></path></g><g><circle cx="60.12" cy="48.73" r="7.55" transform="translate(-16.64 38.89) rotate(-31.72)" style="fill:#fafafa;"></circle><path d="M52.11,48.73c0-4.42,3.59-8.01,8.01-8.01s8.01,3.59,8.01,8.01-3.59,8.01-8.01,8.01-8.01-3.59-8.01-8.01Zm.92,0c0,3.91,3.18,7.09,7.09,7.09s7.09-3.18,7.09-7.09-3.18-7.09-7.09-7.09-7.09,3.18-7.09,7.09Z" style="fill:#ebebeb;"></path></g><g><path d="M167.63,48.52c0,4.17,3.38,7.55,7.55,7.55s7.55-3.38,7.55-7.55-3.38-7.55-7.55-7.55-7.55,3.38-7.55,7.55Z" style="fill:#fafafa;"></path><path d="M167.17,48.52c0-4.42,3.59-8.01,8.01-8.01s8.01,3.59,8.01,8.01-3.59,8.01-8.01,8.01-8.01-3.59-8.01-8.01Zm.92,0c0,3.91,3.18,7.09,7.09,7.09s7.09-3.18,7.09-7.09-3.18-7.09-7.09-7.09-7.09,3.18-7.09,7.09Z" style="fill:#ebebeb;"></path></g></g><g><g><circle cx="156" cy="30.38" r="7.55" style="fill:#fafafa;"></circle><path d="M147.99,30.38c0-4.42,3.59-8.01,8.01-8.01s8.01,3.59,8.01,8.01-3.59,8.01-8.01,8.01-8.01-3.59-8.01-8.01Zm.92,0c0,3.91,3.18,7.09,7.09,7.09s7.09-3.18,7.09-7.09-3.18-7.09-7.09-7.09-7.09,3.18-7.09,7.09Z" style="fill:#ebebeb;"></path></g><g><path d="M129.28,30.38c0,4.17,3.38,7.55,7.55,7.55s7.55-3.38,7.55-7.55-3.38-7.55-7.55-7.55-7.55,3.38-7.55,7.55Z" style="fill:#fafafa;"></path><path d="M128.82,30.38c0-4.42,3.59-8.01,8.01-8.01s8.01,3.59,8.01,8.01-3.59,8.01-8.01,8.01-8.01-3.59-8.01-8.01Zm.92,0c0,3.91,3.18,7.09,7.09,7.09s7.09-3.18,7.09-7.09-3.18-7.09-7.09-7.09-7.09,3.18-7.09,7.09Z" style="fill:#ebebeb;"></path></g><g><circle cx="117.65" cy="30.38" r="7.55" style="fill:#fafafa;"></circle><path d="M109.64,30.38c0-4.42,3.59-8.01,8.01-8.01s8.01,3.59,8.01,8.01-3.59,8.01-8.01,8.01-8.01-3.59-8.01-8.01Zm.92,0c0,3.91,3.18,7.09,7.09,7.09s7.09-3.18,7.09-7.09-3.18-7.09-7.09-7.09-7.09,3.18-7.09,7.09Z" style="fill:#ebebeb;"></path></g><g><circle cx="98.47" cy="30.38" r="7.55" style="fill:#fafafa;"></circle><path d="M90.47,30.38c0-4.42,3.59-8.01,8.01-8.01s8.01,3.59,8.01,8.01-3.59,8.01-8.01,8.01-8.01-3.59-8.01-8.01Zm.92,0c0,3.91,3.18,7.09,7.09,7.09s7.09-3.18,7.09-7.09-3.18-7.09-7.09-7.09-7.09,3.18-7.09,7.09Z" style="fill:#ebebeb;"></path></g><g><circle cx="79.3" cy="30.38" r="7.55" style="fill:#fafafa;"></circle><path d="M71.29,30.38c0-4.42,3.59-8.01,8.01-8.01s8.01,3.59,8.01,8.01-3.59,8.01-8.01,8.01-8.01-3.59-8.01-8.01Zm.92,0c0,3.91,3.18,7.09,7.09,7.09s7.09-3.18,7.09-7.09-3.18-7.09-7.09-7.09-7.09,3.18-7.09,7.09Z" style="fill:#ebebeb;"></path></g><g><circle cx="60.12" cy="30.38" r="7.55" style="fill:#fafafa;"></circle><path d="M52.11,30.38c0-4.42,3.59-8.01,8.01-8.01s8.01,3.59,8.01,8.01-3.59,8.01-8.01,8.01-8.01-3.59-8.01-8.01Zm.92,0c0,3.91,3.18,7.09,7.09,7.09s7.09-3.18,7.09-7.09-3.18-7.09-7.09-7.09-7.09,3.18-7.09,7.09Z" style="fill:#ebebeb;"></path></g><g><path d="M167.63,30.16c0,4.17,3.38,7.55,7.55,7.55s7.55-3.38,7.55-7.55-3.38-7.55-7.55-7.55-7.55,3.38-7.55,7.55Z" style="fill:#fafafa;"></path><path d="M167.17,30.16c0-4.42,3.59-8.01,8.01-8.01s8.01,3.59,8.01,8.01-3.59,8.01-8.01,8.01-8.01-3.59-8.01-8.01Zm.92,0c0,3.91,3.18,7.09,7.09,7.09s7.09-3.18,7.09-7.09-3.18-7.09-7.09-7.09-7.09,3.18-7.09,7.09Z" style="fill:#ebebeb;"></path></g></g><g><g><circle cx="156" cy="12.02" r="7.55" style="fill:#fafafa;"></circle><path d="M147.99,12.02c0-4.42,3.59-8.01,8.01-8.01s8.01,3.59,8.01,8.01-3.59,8.01-8.01,8.01-8.01-3.59-8.01-8.01Zm.92,0c0,3.91,3.18,7.09,7.09,7.09s7.09-3.18,7.09-7.09-3.18-7.09-7.09-7.09-7.09,3.18-7.09,7.09Z" style="fill:#ebebeb;"></path></g><g><path d="M129.28,12.02c0,4.17,3.38,7.55,7.55,7.55s7.55-3.38,7.55-7.55-3.38-7.55-7.55-7.55-7.55,3.38-7.55,7.55Z" style="fill:#fafafa;"></path><path d="M128.82,12.02c0-4.42,3.59-8.01,8.01-8.01s8.01,3.59,8.01,8.01-3.59,8.01-8.01,8.01-8.01-3.59-8.01-8.01Zm.92,0c0,3.91,3.18,7.09,7.09,7.09s7.09-3.18,7.09-7.09-3.18-7.09-7.09-7.09-7.09,3.18-7.09,7.09Z" style="fill:#ebebeb;"></path></g><g><circle cx="117.65" cy="12.02" r="7.55" style="fill:#fafafa;"></circle><path d="M109.64,12.02c0-4.42,3.59-8.01,8.01-8.01s8.01,3.59,8.01,8.01-3.59,8.01-8.01,8.01-8.01-3.59-8.01-8.01Zm.92,0c0,3.91,3.18,7.09,7.09,7.09s7.09-3.18,7.09-7.09-3.18-7.09-7.09-7.09-7.09,3.18-7.09,7.09Z" style="fill:#ebebeb;"></path></g><g><circle cx="98.47" cy="12.02" r="7.55" style="fill:#fafafa;"></circle><path d="M90.47,12.02c0-4.42,3.59-8.01,8.01-8.01s8.01,3.59,8.01,8.01-3.59,8.01-8.01,8.01-8.01-3.59-8.01-8.01Zm.92,0c0,3.91,3.18,7.09,7.09,7.09s7.09-3.18,7.09-7.09-3.18-7.09-7.09-7.09-7.09,3.18-7.09,7.09Z" style="fill:#ebebeb;"></path></g><g><circle cx="79.3" cy="12.02" r="7.55" style="fill:#fafafa;"></circle><path d="M71.29,12.02c0-4.42,3.59-8.01,8.01-8.01s8.01,3.59,8.01,8.01-3.59,8.01-8.01,8.01-8.01-3.59-8.01-8.01Zm.92,0c0,3.91,3.18,7.09,7.09,7.09s7.09-3.18,7.09-7.09-3.18-7.09-7.09-7.09-7.09,3.18-7.09,7.09Z" style="fill:#ebebeb;"></path></g><g><circle cx="60.12" cy="12.02" r="7.55" style="fill:#fafafa;"></circle><path d="M52.11,12.02c0-4.42,3.59-8.01,8.01-8.01s8.01,3.59,8.01,8.01-3.59,8.01-8.01,8.01-8.01-3.59-8.01-8.01Zm.92,0c0,3.91,3.18,7.09,7.09,7.09s7.09-3.18,7.09-7.09-3.18-7.09-7.09-7.09-7.09,3.18-7.09,7.09Z" style="fill:#ebebeb;"></path></g><g><path d="M167.63,11.81c0,4.17,3.38,7.55,7.55,7.55s7.55-3.38,7.55-7.55-3.38-7.55-7.55-7.55-7.55,3.38-7.55,7.55Z" style="fill:#fafafa;"></path><path d="M167.17,11.81c0-4.42,3.59-8.01,8.01-8.01s8.01,3.59,8.01,8.01-3.59,8.01-8.01,8.01-8.01-3.59-8.01-8.01Zm.92,0c0,3.91,3.18,7.09,7.09,7.09s7.09-3.18,7.09-7.09-3.18-7.09-7.09-7.09-7.09,3.18-7.09,7.09Z" style="fill:#ebebeb;"></path></g></g></g><g><path d="M384.39,157.31s.01-.27,.02-.79c0-.53,0-1.29,.02-2.28,0-2.01,.02-4.95,.03-8.74,.02-7.59,.04-18.57,.07-32.18,.03-27.2,.06-64.91,.1-107.01l-.24,.24c2.94,0,6.1,0,9.27,0,.2,0,.41,0,.6,0l-.24-.24c.07,69.26,.14,128.12,.16,149.74l.07-.08c-3.27,.44-5.73,.77-7.37,.99-.82,.11-1.43,.2-1.85,.25-.41,.06-.63,.09-.63,.09,0,0,.2-.02,.6-.06,.42-.05,1.03-.12,1.84-.22,1.66-.2,4.14-.5,7.44-.9h.07v-.08c.02-21.62,.09-80.48,.16-149.74v-.24h-.84c-3.18,0-6.33,0-9.27,0h-.24v.24c.04,42.18,.08,79.96,.1,107.2,.03,13.59,.05,24.54,.07,32.12,.01,3.76,.02,6.69,.03,8.68,0,.98,.01,1.73,.02,2.24,0,.5,.02,.75,.02,.75Z" style="fill:#ebebeb;"></path><path d="M329.9,156.87s.01-.27,.02-.78c0-.52,0-1.28,.02-2.27,0-2,.02-4.93,.03-8.71,.02-7.57,.04-18.51,.07-32.08,.03-27.12,.06-64.72,.1-106.72l-.24,.24c3.03,0,6.28,0,9.55,0h0l-.24-.24c.07,69.89,.14,129.28,.16,150.56l.08-.08c-3.19,.02-5.57,.04-7.16,.05-.79,0-1.38,.01-1.79,.02-.4,0-.61,.02-.61,.02,0,0,.19,0,.58,.02,.41,0,.99,.01,1.77,.02,1.61,.01,4,.03,7.21,.05h.08v-.08c.02-21.28,.09-80.67,.16-150.56v-.24h-.25c-3.27,0-6.52,0-9.55,0h-.24v.24c.04,42.07,.08,79.73,.1,106.9,.03,13.55,.06,24.47,.07,32.02,.01,3.75,.03,6.66,.03,8.65,0,.98,.01,1.72,.02,2.24,0,.5,.02,.75,.02,.75Z" style="fill:#ebebeb;"></path><path d="M304.66,66.35c0,.13,25.96,.24,57.97,.24s57.97-.11,57.97-.24-25.95-.24-57.97-.24-57.97,.11-57.97,.24Z" style="fill:#ebebeb;"></path><path d="M304.66,48.24c0,.13,25.96,.24,57.97,.24s57.97-.11,57.97-.24-25.95-.24-57.97-.24-57.97,.11-57.97,.24Z" style="fill:#ebebeb;"></path><path d="M304.66,30.14c0,.13,25.96,.24,57.97,.24s57.97-.11,57.97-.24-25.95-.24-57.97-.24-57.97,.11-57.97,.24Z" style="fill:#ebebeb;"></path><path d="M304.66,12.03c0,.13,25.96,.24,57.97,.24s57.97-.11,57.97-.24-25.95-.24-57.97-.24-57.97,.11-57.97,.24Z" style="fill:#ebebeb;"></path><g><path d="M411.82,67.32c0,4.17,3.38,7.55,7.55,7.55s7.55-3.38,7.55-7.55-3.38-7.55-7.55-7.55-7.55,3.38-7.55,7.55Z" style="fill:#fafafa;"></path><path d="M411.35,67.32c0-4.42,3.59-8.01,8.01-8.01s8.01,3.59,8.01,8.01-3.59,8.01-8.01,8.01-8.01-3.59-8.01-8.01Zm.92,0c0,3.91,3.18,7.09,7.09,7.09s7.09-3.18,7.09-7.09-3.18-7.09-7.09-7.09-7.09,3.18-7.09,7.09Z" style="fill:#ebebeb;"></path></g><g><circle cx="400.19" cy="67.32" r="7.55" style="fill:#fafafa;"></circle><path d="M392.18,67.32c0-4.42,3.59-8.01,8.01-8.01s8.01,3.59,8.01,8.01-3.59,8.01-8.01,8.01-8.01-3.59-8.01-8.01Zm.92,0c0,3.91,3.18,7.09,7.09,7.09s7.09-3.18,7.09-7.09-3.18-7.09-7.09-7.09-7.09,3.18-7.09,7.09Z" style="fill:#ebebeb;"></path></g><g><path d="M373.46,67.32c0,4.17,3.38,7.55,7.55,7.55s7.55-3.38,7.55-7.55-3.38-7.55-7.55-7.55-7.55,3.38-7.55,7.55Z" style="fill:#fafafa;"></path><path d="M373,67.32c0-4.42,3.59-8.01,8.01-8.01s8.01,3.59,8.01,8.01-3.59,8.01-8.01,8.01-8.01-3.59-8.01-8.01Zm.92,0c0,3.91,3.18,7.09,7.09,7.09s7.09-3.18,7.09-7.09-3.18-7.09-7.09-7.09-7.09,3.18-7.09,7.09Z" style="fill:#ebebeb;"></path></g><g><circle cx="361.83" cy="67.32" r="7.55" style="fill:#fafafa;"></circle><path d="M353.83,67.32c0-4.42,3.59-8.01,8.01-8.01s8.01,3.59,8.01,8.01-3.59,8.01-8.01,8.01-8.01-3.59-8.01-8.01Zm.92,0c0,3.91,3.18,7.09,7.09,7.09s7.09-3.18,7.09-7.09-3.18-7.09-7.09-7.09-7.09,3.18-7.09,7.09Z" style="fill:#ebebeb;"></path></g><g><circle cx="342.66" cy="67.32" r="7.55" style="fill:#fafafa;"></circle><path d="M334.65,67.32c0-4.42,3.59-8.01,8.01-8.01s8.01,3.59,8.01,8.01-3.59,8.01-8.01,8.01-8.01-3.59-8.01-8.01Zm.92,0c0,3.91,3.18,7.09,7.09,7.09s7.09-3.18,7.09-7.09-3.18-7.09-7.09-7.09-7.09,3.18-7.09,7.09Z" style="fill:#ebebeb;"></path></g><g><circle cx="323.48" cy="67.32" r="7.55" style="fill:#fafafa;"></circle><path d="M315.47,67.32c0-4.42,3.59-8.01,8.01-8.01s8.01,3.59,8.01,8.01-3.59,8.01-8.01,8.01-8.01-3.59-8.01-8.01Zm.92,0c0,3.91,3.18,7.09,7.09,7.09s7.09-3.18,7.09-7.09-3.18-7.09-7.09-7.09-7.09,3.18-7.09,7.09Z" style="fill:#ebebeb;"></path></g><g><circle cx="304.31" cy="67.32" r="7.55" style="fill:#fafafa;"></circle><path d="M296.3,67.32c0-4.42,3.59-8.01,8.01-8.01s8.01,3.59,8.01,8.01-3.59,8.01-8.01,8.01-8.01-3.59-8.01-8.01Zm.92,0c0,3.91,3.18,7.09,7.09,7.09s7.09-3.18,7.09-7.09-3.18-7.09-7.09-7.09-7.09,3.18-7.09,7.09Z" style="fill:#ebebeb;"></path></g><g><g><circle cx="400.19" cy="48.73" r="7.55" transform="translate(260.53 426.91) rotate(-76.67)" style="fill:#fafafa;"></circle><path d="M392.18,48.73c0-4.42,3.59-8.01,8.01-8.01s8.01,3.59,8.01,8.01-3.59,8.01-8.01,8.01-8.01-3.59-8.01-8.01Zm.92,0c0,3.91,3.18,7.09,7.09,7.09s7.09-3.18,7.09-7.09-3.18-7.09-7.09-7.09-7.09,3.18-7.09,7.09Z" style="fill:#ebebeb;"></path></g><g><path d="M373.46,48.73c0,4.17,3.38,7.55,7.55,7.55s7.55-3.38,7.55-7.55-3.38-7.55-7.55-7.55-7.55,3.38-7.55,7.55Z" style="fill:#fafafa;"></path><path d="M373,48.73c0-4.42,3.59-8.01,8.01-8.01s8.01,3.59,8.01,8.01-3.59,8.01-8.01,8.01-8.01-3.59-8.01-8.01Zm.92,0c0,3.91,3.18,7.09,7.09,7.09s7.09-3.18,7.09-7.09-3.18-7.09-7.09-7.09-7.09,3.18-7.09,7.09Z" style="fill:#ebebeb;"></path></g><g><circle cx="361.83" cy="48.73" r="7.55" transform="translate(238.29 392.3) rotate(-77.89)" style="fill:#fafafa;"></circle><path d="M353.83,48.73c0-4.42,3.59-8.01,8.01-8.01s8.01,3.59,8.01,8.01-3.59,8.01-8.01,8.01-8.01-3.59-8.01-8.01Zm.92,0c0,3.91,3.18,7.09,7.09,7.09s7.09-3.18,7.09-7.09-3.18-7.09-7.09-7.09-7.09,3.18-7.09,7.09Z" style="fill:#ebebeb;"></path></g><g><circle cx="342.66" cy="48.73" r="7.55" transform="translate(-3.38 55.39) rotate(-9.2)" style="fill:#fafafa;"></circle><path d="M334.65,48.73c0-4.42,3.59-8.01,8.01-8.01s8.01,3.59,8.01,8.01-3.59,8.01-8.01,8.01-8.01-3.59-8.01-8.01Zm.92,0c0,3.91,3.18,7.09,7.09,7.09s7.09-3.18,7.09-7.09-3.18-7.09-7.09-7.09-7.09,3.18-7.09,7.09Z" style="fill:#ebebeb;"></path></g><g><circle cx="323.48" cy="48.73" r="7.55" transform="translate(154.13 328.62) rotate(-67.39)" style="fill:#fafafa;"></circle><path d="M315.47,48.73c0-4.42,3.59-8.01,8.01-8.01s8.01,3.59,8.01,8.01-3.59,8.01-8.01,8.01-8.01-3.59-8.01-8.01Zm.92,0c0,3.91,3.18,7.09,7.09,7.09s7.09-3.18,7.09-7.09-3.18-7.09-7.09-7.09-7.09,3.18-7.09,7.09Z" style="fill:#ebebeb;"></path></g><g><path d="M296.76,48.73c0,4.17,3.38,7.55,7.55,7.55s7.55-3.38,7.55-7.55-3.38-7.55-7.55-7.55-7.55,3.38-7.55,7.55Z" style="fill:#fafafa;"></path><path d="M296.3,48.73c0-4.42,3.59-8.01,8.01-8.01s8.01,3.59,8.01,8.01-3.59,8.01-8.01,8.01-8.01-3.59-8.01-8.01Zm.92,0c0,3.91,3.18,7.09,7.09,7.09s7.09-3.18,7.09-7.09-3.18-7.09-7.09-7.09-7.09,3.18-7.09,7.09Z" style="fill:#ebebeb;"></path></g><g><path d="M411.82,48.52c0,4.17,3.38,7.55,7.55,7.55s7.55-3.38,7.55-7.55-3.38-7.55-7.55-7.55-7.55,3.38-7.55,7.55Z" style="fill:#fafafa;"></path><path d="M411.35,48.52c0-4.42,3.59-8.01,8.01-8.01s8.01,3.59,8.01,8.01-3.59,8.01-8.01,8.01-8.01-3.59-8.01-8.01Zm.92,0c0,3.91,3.18,7.09,7.09,7.09s7.09-3.18,7.09-7.09-3.18-7.09-7.09-7.09-7.09,3.18-7.09,7.09Z" style="fill:#ebebeb;"></path></g></g><g><g><circle cx="400.19" cy="30.38" r="7.55" style="fill:#fafafa;"></circle><path d="M392.18,30.38c0-4.42,3.59-8.01,8.01-8.01s8.01,3.59,8.01,8.01-3.59,8.01-8.01,8.01-8.01-3.59-8.01-8.01Zm.92,0c0,3.91,3.18,7.09,7.09,7.09s7.09-3.18,7.09-7.09-3.18-7.09-7.09-7.09-7.09,3.18-7.09,7.09Z" style="fill:#ebebeb;"></path></g><g><path d="M373.46,30.38c0,4.17,3.38,7.55,7.55,7.55s7.55-3.38,7.55-7.55-3.38-7.55-7.55-7.55-7.55,3.38-7.55,7.55Z" style="fill:#fafafa;"></path><path d="M373,30.38c0-4.42,3.59-8.01,8.01-8.01s8.01,3.59,8.01,8.01-3.59,8.01-8.01,8.01-8.01-3.59-8.01-8.01Zm.92,0c0,3.91,3.18,7.09,7.09,7.09s7.09-3.18,7.09-7.09-3.18-7.09-7.09-7.09-7.09,3.18-7.09,7.09Z" style="fill:#ebebeb;"></path></g><g><circle cx="361.83" cy="30.38" r="7.55" style="fill:#fafafa;"></circle><path d="M353.83,30.38c0-4.42,3.59-8.01,8.01-8.01s8.01,3.59,8.01,8.01-3.59,8.01-8.01,8.01-8.01-3.59-8.01-8.01Zm.92,0c0,3.91,3.18,7.09,7.09,7.09s7.09-3.18,7.09-7.09-3.18-7.09-7.09-7.09-7.09,3.18-7.09,7.09Z" style="fill:#ebebeb;"></path></g><g><circle cx="342.66" cy="30.38" r="7.55" style="fill:#fafafa;"></circle><path d="M334.65,30.38c0-4.42,3.59-8.01,8.01-8.01s8.01,3.59,8.01,8.01-3.59,8.01-8.01,8.01-8.01-3.59-8.01-8.01Zm.92,0c0,3.91,3.18,7.09,7.09,7.09s7.09-3.18,7.09-7.09-3.18-7.09-7.09-7.09-7.09,3.18-7.09,7.09Z" style="fill:#ebebeb;"></path></g><g><circle cx="323.48" cy="30.38" r="7.55" style="fill:#fafafa;"></circle><path d="M315.47,30.38c0-4.42,3.59-8.01,8.01-8.01s8.01,3.59,8.01,8.01-3.59,8.01-8.01,8.01-8.01-3.59-8.01-8.01Zm.92,0c0,3.91,3.18,7.09,7.09,7.09s7.09-3.18,7.09-7.09-3.18-7.09-7.09-7.09-7.09,3.18-7.09,7.09Z" style="fill:#ebebeb;"></path></g><g><circle cx="304.31" cy="30.38" r="7.55" style="fill:#fafafa;"></circle><path d="M296.3,30.38c0-4.42,3.59-8.01,8.01-8.01s8.01,3.59,8.01,8.01-3.59,8.01-8.01,8.01-8.01-3.59-8.01-8.01Zm.92,0c0,3.91,3.18,7.09,7.09,7.09s7.09-3.18,7.09-7.09-3.18-7.09-7.09-7.09-7.09,3.18-7.09,7.09Z" style="fill:#ebebeb;"></path></g><g><path d="M411.82,30.16c0,4.17,3.38,7.55,7.55,7.55s7.55-3.38,7.55-7.55-3.38-7.55-7.55-7.55-7.55,3.38-7.55,7.55Z" style="fill:#fafafa;"></path><path d="M411.35,30.16c0-4.42,3.59-8.01,8.01-8.01s8.01,3.59,8.01,8.01-3.59,8.01-8.01,8.01-8.01-3.59-8.01-8.01Zm.92,0c0,3.91,3.18,7.09,7.09,7.09s7.09-3.18,7.09-7.09-3.18-7.09-7.09-7.09-7.09,3.18-7.09,7.09Z" style="fill:#ebebeb;"></path></g></g><g><g><circle cx="400.19" cy="12.02" r="7.55" style="fill:#fafafa;"></circle><path d="M392.18,12.02c0-4.42,3.59-8.01,8.01-8.01s8.01,3.59,8.01,8.01-3.59,8.01-8.01,8.01-8.01-3.59-8.01-8.01Zm.92,0c0,3.91,3.18,7.09,7.09,7.09s7.09-3.18,7.09-7.09-3.18-7.09-7.09-7.09-7.09,3.18-7.09,7.09Z" style="fill:#ebebeb;"></path></g><g><path d="M373.46,12.02c0,4.17,3.38,7.55,7.55,7.55s7.55-3.38,7.55-7.55-3.38-7.55-7.55-7.55-7.55,3.38-7.55,7.55Z" style="fill:#fafafa;"></path><path d="M373,12.02c0-4.42,3.59-8.01,8.01-8.01s8.01,3.59,8.01,8.01-3.59,8.01-8.01,8.01-8.01-3.59-8.01-8.01Zm.92,0c0,3.91,3.18,7.09,7.09,7.09s7.09-3.18,7.09-7.09-3.18-7.09-7.09-7.09-7.09,3.18-7.09,7.09Z" style="fill:#ebebeb;"></path></g><g><circle cx="361.83" cy="12.02" r="7.55" style="fill:#fafafa;"></circle><path d="M353.83,12.02c0-4.42,3.59-8.01,8.01-8.01s8.01,3.59,8.01,8.01-3.59,8.01-8.01,8.01-8.01-3.59-8.01-8.01Zm.92,0c0,3.91,3.18,7.09,7.09,7.09s7.09-3.18,7.09-7.09-3.18-7.09-7.09-7.09-7.09,3.18-7.09,7.09Z" style="fill:#ebebeb;"></path></g><g><circle cx="342.66" cy="12.02" r="7.55" style="fill:#fafafa;"></circle><path d="M334.65,12.02c0-4.42,3.59-8.01,8.01-8.01s8.01,3.59,8.01,8.01-3.59,8.01-8.01,8.01-8.01-3.59-8.01-8.01Zm.92,0c0,3.91,3.18,7.09,7.09,7.09s7.09-3.18,7.09-7.09-3.18-7.09-7.09-7.09-7.09,3.18-7.09,7.09Z" style="fill:#ebebeb;"></path></g><g><circle cx="323.48" cy="12.02" r="7.55" style="fill:#fafafa;"></circle><path d="M315.47,12.02c0-4.42,3.59-8.01,8.01-8.01s8.01,3.59,8.01,8.01-3.59,8.01-8.01,8.01-8.01-3.59-8.01-8.01Zm.92,0c0,3.91,3.18,7.09,7.09,7.09s7.09-3.18,7.09-7.09-3.18-7.09-7.09-7.09-7.09,3.18-7.09,7.09Z" style="fill:#ebebeb;"></path></g><g><circle cx="304.31" cy="12.02" r="7.55" style="fill:#fafafa;"></circle><path d="M296.3,12.02c0-4.42,3.59-8.01,8.01-8.01s8.01,3.59,8.01,8.01-3.59,8.01-8.01,8.01-8.01-3.59-8.01-8.01Zm.92,0c0,3.91,3.18,7.09,7.09,7.09s7.09-3.18,7.09-7.09-3.18-7.09-7.09-7.09-7.09,3.18-7.09,7.09Z" style="fill:#ebebeb;"></path></g><g><path d="M411.82,11.81c0,4.17,3.38,7.55,7.55,7.55s7.55-3.38,7.55-7.55-3.38-7.55-7.55-7.55-7.55,3.38-7.55,7.55Z" style="fill:#fafafa;"></path><path d="M411.35,11.81c0-4.42,3.59-8.01,8.01-8.01s8.01,3.59,8.01,8.01-3.59,8.01-8.01,8.01-8.01-3.59-8.01-8.01Zm.92,0c0,3.91,3.18,7.09,7.09,7.09s7.09-3.18,7.09-7.09-3.18-7.09-7.09-7.09-7.09,3.18-7.09,7.09Z" style="fill:#ebebeb;"></path></g></g></g><g><path d="M614.99,157.31s.01-.27,.02-.79c0-.53,0-1.29,.02-2.28,0-2.01,.02-4.95,.03-8.74,.02-7.59,.04-18.57,.07-32.18,.03-27.2,.06-64.91,.1-107.01l-.24,.24c2.94,0,6.1,0,9.27,0,.2,0,.41,0,.6,0l-.24-.24c.07,69.26,.14,128.12,.16,149.74l.07-.08c-3.27,.44-5.73,.77-7.37,.99-.82,.11-1.43,.2-1.85,.25-.41,.06-.63,.09-.63,.09,0,0,.2-.02,.6-.06,.42-.05,1.03-.12,1.84-.22,1.66-.2,4.14-.5,7.44-.9h.07v-.08c.02-21.62,.09-80.48,.16-149.74v-.24h-.84c-3.18,0-6.33,0-9.27,0h-.24v.24c.04,42.18,.08,79.96,.1,107.2,.03,13.59,.05,24.54,.07,32.12,.01,3.76,.02,6.69,.03,8.68,0,.98,.01,1.73,.02,2.24,0,.5,.02,.75,.02,.75Z" style="fill:#ebebeb;"></path><path d="M560.51,156.87s.01-.27,.02-.78c0-.52,0-1.28,.02-2.27,0-2,.02-4.93,.03-8.71,.02-7.57,.04-18.51,.07-32.08,.03-27.12,.06-64.72,.1-106.72l-.24,.24c3.03,0,6.28,0,9.55,0h0l-.24-.24c.07,69.89,.14,129.28,.16,150.56l.08-.08c-3.19,.02-5.57,.04-7.16,.05-.79,0-1.38,.01-1.79,.02-.4,0-.61,.02-.61,.02,0,0,.19,0,.58,.02,.41,0,.99,.01,1.77,.02,1.61,.01,4,.03,7.21,.05h.08v-.08c.02-21.28,.09-80.67,.16-150.56v-.24h-.25c-3.27,0-6.52,0-9.55,0h-.24v.24c.04,42.07,.08,79.73,.1,106.9,.03,13.55,.06,24.47,.07,32.02,.01,3.75,.03,6.66,.03,8.65,0,.98,.01,1.72,.02,2.24,0,.5,.02,.75,.02,.75Z" style="fill:#ebebeb;"></path><path d="M535.26,66.35c0,.13,25.96,.24,57.97,.24s57.97-.11,57.97-.24-25.95-.24-57.97-.24-57.97,.11-57.97,.24Z" style="fill:#ebebeb;"></path><path d="M535.26,48.24c0,.13,25.96,.24,57.97,.24s57.97-.11,57.97-.24-25.95-.24-57.97-.24-57.97,.11-57.97,.24Z" style="fill:#ebebeb;"></path><path d="M535.26,30.14c0,.13,25.96,.24,57.97,.24s57.97-.11,57.97-.24-25.95-.24-57.97-.24-57.97,.11-57.97,.24Z" style="fill:#ebebeb;"></path><path d="M535.26,12.03c0,.13,25.96,.24,57.97,.24s57.97-.11,57.97-.24-25.95-.24-57.97-.24-57.97,.11-57.97,.24Z" style="fill:#ebebeb;"></path><g><path d="M642.42,67.32c0,4.17,3.38,7.55,7.55,7.55s7.55-3.38,7.55-7.55-3.38-7.55-7.55-7.55-7.55,3.38-7.55,7.55Z" style="fill:#fafafa;"></path><path d="M641.96,67.32c0-4.42,3.59-8.01,8.01-8.01s8.01,3.59,8.01,8.01-3.59,8.01-8.01,8.01-8.01-3.59-8.01-8.01Zm.92,0c0,3.91,3.18,7.09,7.09,7.09s7.09-3.18,7.09-7.09-3.18-7.09-7.09-7.09-7.09,3.18-7.09,7.09Z" style="fill:#ebebeb;"></path></g><g><circle cx="630.79" cy="67.32" r="7.55" style="fill:#fafafa;"></circle><path d="M622.78,67.32c0-4.42,3.59-8.01,8.01-8.01s8.01,3.59,8.01,8.01-3.59,8.01-8.01,8.01-8.01-3.59-8.01-8.01Zm.92,0c0,3.91,3.18,7.09,7.09,7.09s7.09-3.18,7.09-7.09-3.18-7.09-7.09-7.09-7.09,3.18-7.09,7.09Z" style="fill:#ebebeb;"></path></g><g><path d="M604.07,67.32c0,4.17,3.38,7.55,7.55,7.55s7.55-3.38,7.55-7.55-3.38-7.55-7.55-7.55-7.55,3.38-7.55,7.55Z" style="fill:#fafafa;"></path><path d="M603.61,67.32c0-4.42,3.59-8.01,8.01-8.01s8.01,3.59,8.01,8.01-3.59,8.01-8.01,8.01-8.01-3.59-8.01-8.01Zm.92,0c0,3.91,3.18,7.09,7.09,7.09s7.09-3.18,7.09-7.09-3.18-7.09-7.09-7.09-7.09,3.18-7.09,7.09Z" style="fill:#ebebeb;"></path></g><g><circle cx="592.44" cy="67.32" r="7.55" style="fill:#fafafa;"></circle><path d="M584.43,67.32c0-4.42,3.59-8.01,8.01-8.01s8.01,3.59,8.01,8.01-3.59,8.01-8.01,8.01-8.01-3.59-8.01-8.01Zm.92,0c0,3.91,3.18,7.09,7.09,7.09s7.09-3.18,7.09-7.09-3.18-7.09-7.09-7.09-7.09,3.18-7.09,7.09Z" style="fill:#ebebeb;"></path></g><g><circle cx="573.26" cy="67.32" r="7.55" style="fill:#fafafa;"></circle><path d="M565.25,67.32c0-4.42,3.59-8.01,8.01-8.01s8.01,3.59,8.01,8.01-3.59,8.01-8.01,8.01-8.01-3.59-8.01-8.01Zm.92,0c0,3.91,3.18,7.09,7.09,7.09s7.09-3.18,7.09-7.09-3.18-7.09-7.09-7.09-7.09,3.18-7.09,7.09Z" style="fill:#ebebeb;"></path></g><g><circle cx="554.09" cy="67.32" r="7.55" style="fill:#fafafa;"></circle><path d="M546.08,67.32c0-4.42,3.59-8.01,8.01-8.01s8.01,3.59,8.01,8.01-3.59,8.01-8.01,8.01-8.01-3.59-8.01-8.01Zm.92,0c0,3.91,3.18,7.09,7.09,7.09s7.09-3.18,7.09-7.09-3.18-7.09-7.09-7.09-7.09,3.18-7.09,7.09Z" style="fill:#ebebeb;"></path></g><g><circle cx="534.91" cy="67.32" r="7.55" style="fill:#fafafa;"></circle><path d="M526.9,67.32c0-4.42,3.59-8.01,8.01-8.01s8.01,3.59,8.01,8.01-3.59,8.01-8.01,8.01-8.01-3.59-8.01-8.01Zm.92,0c0,3.91,3.18,7.09,7.09,7.09s7.09-3.18,7.09-7.09-3.18-7.09-7.09-7.09-7.09,3.18-7.09,7.09Z" style="fill:#ebebeb;"></path></g><g><g><circle cx="630.79" cy="48.73" r="7.55" transform="translate(437.98 651.31) rotate(-76.67)" style="fill:#fafafa;"></circle><path d="M622.78,48.73c0-4.42,3.59-8.01,8.01-8.01s8.01,3.59,8.01,8.01-3.59,8.01-8.01,8.01-8.01-3.59-8.01-8.01Zm.92,0c0,3.91,3.18,7.09,7.09,7.09s7.09-3.18,7.09-7.09-3.18-7.09-7.09-7.09-7.09,3.18-7.09,7.09Z" style="fill:#ebebeb;"></path></g><g><path d="M604.07,48.73c0,4.17,3.38,7.55,7.55,7.55s7.55-3.38,7.55-7.55-3.38-7.55-7.55-7.55-7.55,3.38-7.55,7.55Z" style="fill:#fafafa;"></path><path d="M603.61,48.73c0-4.42,3.59-8.01,8.01-8.01s8.01,3.59,8.01,8.01-3.59,8.01-8.01,8.01-8.01-3.59-8.01-8.01Zm.92,0c0,3.91,3.18,7.09,7.09,7.09s7.09-3.18,7.09-7.09-3.18-7.09-7.09-7.09-7.09,3.18-7.09,7.09Z" style="fill:#ebebeb;"></path></g><g><circle cx="592.44" cy="48.73" r="7.55" transform="translate(408.46 613.99) rotate(-76.67)" style="fill:#fafafa;"></circle><path d="M584.43,48.73c0-4.42,3.59-8.01,8.01-8.01s8.01,3.59,8.01,8.01-3.59,8.01-8.01,8.01-8.01-3.59-8.01-8.01Zm.92,0c0,3.91,3.18,7.09,7.09,7.09s7.09-3.18,7.09-7.09-3.18-7.09-7.09-7.09-7.09,3.18-7.09,7.09Z" style="fill:#ebebeb;"></path></g><g><circle cx="573.26" cy="48.73" r="7.55" transform="translate(-.42 92.24) rotate(-9.2)" style="fill:#fafafa;"></circle><path d="M565.25,48.73c0-4.42,3.59-8.01,8.01-8.01s8.01,3.59,8.01,8.01-3.59,8.01-8.01,8.01-8.01-3.59-8.01-8.01Zm.92,0c0,3.91,3.18,7.09,7.09,7.09s7.09-3.18,7.09-7.09-3.18-7.09-7.09-7.09-7.09,3.18-7.09,7.09Z" style="fill:#ebebeb;"></path></g><g><circle cx="554.09" cy="48.73" r="7.55" transform="translate(296.08 541.5) rotate(-67.39)" style="fill:#fafafa;"></circle><path d="M546.08,48.73c0-4.42,3.59-8.01,8.01-8.01s8.01,3.59,8.01,8.01-3.59,8.01-8.01,8.01-8.01-3.59-8.01-8.01Zm.92,0c0,3.91,3.18,7.09,7.09,7.09s7.09-3.18,7.09-7.09-3.18-7.09-7.09-7.09-7.09,3.18-7.09,7.09Z" style="fill:#ebebeb;"></path></g><g><circle cx="534.91" cy="48.73" r="7.55" transform="translate(3.06 123.8) rotate(-13.24)" style="fill:#fafafa;"></circle><path d="M526.9,48.73c0-4.42,3.59-8.01,8.01-8.01s8.01,3.59,8.01,8.01-3.59,8.01-8.01,8.01-8.01-3.59-8.01-8.01Zm.92,0c0,3.91,3.18,7.09,7.09,7.09s7.09-3.18,7.09-7.09-3.18-7.09-7.09-7.09-7.09,3.18-7.09,7.09Z" style="fill:#ebebeb;"></path></g><g><path d="M642.42,48.52c0,4.17,3.38,7.55,7.55,7.55s7.55-3.38,7.55-7.55-3.38-7.55-7.55-7.55-7.55,3.38-7.55,7.55Z" style="fill:#fafafa;"></path><path d="M641.96,48.52c0-4.42,3.59-8.01,8.01-8.01s8.01,3.59,8.01,8.01-3.59,8.01-8.01,8.01-8.01-3.59-8.01-8.01Zm.92,0c0,3.91,3.18,7.09,7.09,7.09s7.09-3.18,7.09-7.09-3.18-7.09-7.09-7.09-7.09,3.18-7.09,7.09Z" style="fill:#ebebeb;"></path></g></g><g><g><circle cx="630.79" cy="30.38" r="7.55" style="fill:#fafafa;"></circle><path d="M622.78,30.38c0-4.42,3.59-8.01,8.01-8.01s8.01,3.59,8.01,8.01-3.59,8.01-8.01,8.01-8.01-3.59-8.01-8.01Zm.92,0c0,3.91,3.18,7.09,7.09,7.09s7.09-3.18,7.09-7.09-3.18-7.09-7.09-7.09-7.09,3.18-7.09,7.09Z" style="fill:#ebebeb;"></path></g><g><path d="M604.07,30.38c0,4.17,3.38,7.55,7.55,7.55s7.55-3.38,7.55-7.55-3.38-7.55-7.55-7.55-7.55,3.38-7.55,7.55Z" style="fill:#fafafa;"></path><path d="M603.61,30.38c0-4.42,3.59-8.01,8.01-8.01s8.01,3.59,8.01,8.01-3.59,8.01-8.01,8.01-8.01-3.59-8.01-8.01Zm.92,0c0,3.91,3.18,7.09,7.09,7.09s7.09-3.18,7.09-7.09-3.18-7.09-7.09-7.09-7.09,3.18-7.09,7.09Z" style="fill:#ebebeb;"></path></g><g><circle cx="592.44" cy="30.38" r="7.55" style="fill:#fafafa;"></circle><path d="M584.43,30.38c0-4.42,3.59-8.01,8.01-8.01s8.01,3.59,8.01,8.01-3.59,8.01-8.01,8.01-8.01-3.59-8.01-8.01Zm.92,0c0,3.91,3.18,7.09,7.09,7.09s7.09-3.18,7.09-7.09-3.18-7.09-7.09-7.09-7.09,3.18-7.09,7.09Z" style="fill:#ebebeb;"></path></g><g><circle cx="573.26" cy="30.38" r="7.55" style="fill:#fafafa;"></circle><path d="M565.25,30.38c0-4.42,3.59-8.01,8.01-8.01s8.01,3.59,8.01,8.01-3.59,8.01-8.01,8.01-8.01-3.59-8.01-8.01Zm.92,0c0,3.91,3.18,7.09,7.09,7.09s7.09-3.18,7.09-7.09-3.18-7.09-7.09-7.09-7.09,3.18-7.09,7.09Z" style="fill:#ebebeb;"></path></g><g><circle cx="554.09" cy="30.38" r="7.55" style="fill:#fafafa;"></circle><path d="M546.08,30.38c0-4.42,3.59-8.01,8.01-8.01s8.01,3.59,8.01,8.01-3.59,8.01-8.01,8.01-8.01-3.59-8.01-8.01Zm.92,0c0,3.91,3.18,7.09,7.09,7.09s7.09-3.18,7.09-7.09-3.18-7.09-7.09-7.09-7.09,3.18-7.09,7.09Z" style="fill:#ebebeb;"></path></g><g><circle cx="534.91" cy="30.38" r="7.55" style="fill:#fafafa;"></circle><path d="M526.9,30.38c0-4.42,3.59-8.01,8.01-8.01s8.01,3.59,8.01,8.01-3.59,8.01-8.01,8.01-8.01-3.59-8.01-8.01Zm.92,0c0,3.91,3.18,7.09,7.09,7.09s7.09-3.18,7.09-7.09-3.18-7.09-7.09-7.09-7.09,3.18-7.09,7.09Z" style="fill:#ebebeb;"></path></g><g><path d="M642.42,30.16c0,4.17,3.38,7.55,7.55,7.55s7.55-3.38,7.55-7.55-3.38-7.55-7.55-7.55-7.55,3.38-7.55,7.55Z" style="fill:#fafafa;"></path><path d="M641.96,30.16c0-4.42,3.59-8.01,8.01-8.01s8.01,3.59,8.01,8.01-3.59,8.01-8.01,8.01-8.01-3.59-8.01-8.01Zm.92,0c0,3.91,3.18,7.09,7.09,7.09s7.09-3.18,7.09-7.09-3.18-7.09-7.09-7.09-7.09,3.18-7.09,7.09Z" style="fill:#ebebeb;"></path></g></g><g><g><circle cx="630.79" cy="12.02" r="7.55" style="fill:#fafafa;"></circle><path d="M622.78,12.02c0-4.42,3.59-8.01,8.01-8.01s8.01,3.59,8.01,8.01-3.59,8.01-8.01,8.01-8.01-3.59-8.01-8.01Zm.92,0c0,3.91,3.18,7.09,7.09,7.09s7.09-3.18,7.09-7.09-3.18-7.09-7.09-7.09-7.09,3.18-7.09,7.09Z" style="fill:#ebebeb;"></path></g><g><path d="M604.07,12.02c0,4.17,3.38,7.55,7.55,7.55s7.55-3.38,7.55-7.55-3.38-7.55-7.55-7.55-7.55,3.38-7.55,7.55Z" style="fill:#fafafa;"></path><path d="M603.61,12.02c0-4.42,3.59-8.01,8.01-8.01s8.01,3.59,8.01,8.01-3.59,8.01-8.01,8.01-8.01-3.59-8.01-8.01Zm.92,0c0,3.91,3.18,7.09,7.09,7.09s7.09-3.18,7.09-7.09-3.18-7.09-7.09-7.09-7.09,3.18-7.09,7.09Z" style="fill:#ebebeb;"></path></g><g><circle cx="592.44" cy="12.02" r="7.55" style="fill:#fafafa;"></circle><path d="M584.43,12.02c0-4.42,3.59-8.01,8.01-8.01s8.01,3.59,8.01,8.01-3.59,8.01-8.01,8.01-8.01-3.59-8.01-8.01Zm.92,0c0,3.91,3.18,7.09,7.09,7.09s7.09-3.18,7.09-7.09-3.18-7.09-7.09-7.09-7.09,3.18-7.09,7.09Z" style="fill:#ebebeb;"></path></g><g><circle cx="573.26" cy="12.02" r="7.55" style="fill:#fafafa;"></circle><path d="M565.25,12.02c0-4.42,3.59-8.01,8.01-8.01s8.01,3.59,8.01,8.01-3.59,8.01-8.01,8.01-8.01-3.59-8.01-8.01Zm.92,0c0,3.91,3.18,7.09,7.09,7.09s7.09-3.18,7.09-7.09-3.18-7.09-7.09-7.09-7.09,3.18-7.09,7.09Z" style="fill:#ebebeb;"></path></g><g><circle cx="554.09" cy="12.02" r="7.55" style="fill:#fafafa;"></circle><path d="M546.08,12.02c0-4.42,3.59-8.01,8.01-8.01s8.01,3.59,8.01,8.01-3.59,8.01-8.01,8.01-8.01-3.59-8.01-8.01Zm.92,0c0,3.91,3.18,7.09,7.09,7.09s7.09-3.18,7.09-7.09-3.18-7.09-7.09-7.09-7.09,3.18-7.09,7.09Z" style="fill:#ebebeb;"></path></g><g><circle cx="534.91" cy="12.02" r="7.55" style="fill:#fafafa;"></circle><path d="M526.9,12.02c0-4.42,3.59-8.01,8.01-8.01s8.01,3.59,8.01,8.01-3.59,8.01-8.01,8.01-8.01-3.59-8.01-8.01Zm.92,0c0,3.91,3.18,7.09,7.09,7.09s7.09-3.18,7.09-7.09-3.18-7.09-7.09-7.09-7.09,3.18-7.09,7.09Z" style="fill:#ebebeb;"></path></g><g><path d="M642.42,11.81c0,4.17,3.38,7.55,7.55,7.55s7.55-3.38,7.55-7.55-3.38-7.55-7.55-7.55-7.55,3.38-7.55,7.55Z" style="fill:#fafafa;"></path><path d="M641.96,11.81c0-4.42,3.59-8.01,8.01-8.01s8.01,3.59,8.01,8.01-3.59,8.01-8.01,8.01-8.01-3.59-8.01-8.01Zm.92,0c0,3.91,3.18,7.09,7.09,7.09s7.09-3.18,7.09-7.09-3.18-7.09-7.09-7.09-7.09,3.18-7.09,7.09Z" style="fill:#ebebeb;"></path></g></g></g><path d="M.04,265.48V124.4s225.24,21.72,363.36,18.3c138.12-3.42,351.5-23.28,351.5-23.28v140.81l-350.6,29.03L.04,265.48Z" style="fill:#fafafa;"></path><path d="M136.23,272.99c-.14,0-.26-30.2-.26-67.45s.12-67.45,.26-67.45,.26,30.19,.26,67.45-.12,67.45-.26,67.45Z" style="fill:#ebebeb;"></path><path d="M280.97,277.47c-.14,0-.26-30.2-.26-67.45s.12-67.45,.26-67.45,.26,30.19,.26,67.45-.12,67.45-.26,67.45Z" style="fill:#ebebeb;"></path><path d="M426.13,275.74c-.14,0-.26-30.2-.26-67.45s.12-67.45,.26-67.45,.26,30.19,.26,67.45-.12,67.45-.26,67.45Z" style="fill:#ebebeb;"></path><path d="M572.8,269.08c-.14,0-.26-30.2-.26-67.45s.12-67.45,.26-67.45,.26,30.19,.26,67.45-.12,67.45-.26,67.45Z" style="fill:#ebebeb;"></path><path d="M315.32,258.04c-.11-.1,19.49-22.23,43.77-49.42,24.29-27.21,44.05-49.18,44.16-49.08s-19.49,22.22-43.77,49.43c-24.28,27.2-44.05,49.17-44.16,49.08Z" style="fill:#ebebeb;"></path><path d="M343.09,202.32c-.11-.1,4.85-5.76,11.06-12.64,6.22-6.89,11.34-12.39,11.45-12.29,.11,.1-4.85,5.76-11.06,12.64-6.22,6.88-11.34,12.39-11.45,12.29Z" style="fill:#ebebeb;"></path><path d="M186.78,230.85c-.1-.1,14.02-14.93,31.55-33.12,17.53-18.19,31.82-32.86,31.92-32.76,.1,.1-14.02,14.92-31.55,33.12-17.52,18.19-31.82,32.85-31.92,32.75Z" style="fill:#ebebeb;"></path><path d="M81.25,201.83c-.09-.11,7.15-6.16,16.16-13.52,9.02-7.36,16.4-13.23,16.49-13.12,.09,.11-7.14,6.16-16.16,13.52-9.02,7.35-16.4,13.23-16.49,13.12Z" style="fill:#ebebeb;"></path><path d="M57.04,209.01c-.1-.1,8.18-8.19,18.49-18.06,10.31-9.87,18.75-17.79,18.85-17.68,.1,.1-8.18,8.19-18.49,18.06-10.31,9.87-18.75,17.79-18.85,17.68Z" style="fill:#ebebeb;"></path><path d="M536.2,168.85c.11,.09-13.93,16.31-31.35,36.21-17.43,19.91-31.64,35.96-31.75,35.87-.11-.09,13.93-16.3,31.36-36.21,17.42-19.9,31.64-35.96,31.75-35.86Z" style="fill:#ebebeb;"></path><path d="M511.24,178.72s-.22,.39-.7,1.03c-.48,.64-1.18,1.55-2.07,2.66-1.78,2.23-4.3,5.25-7.18,8.51-2.88,3.26-5.58,6.13-7.58,8.16-1,1.02-1.81,1.83-2.39,2.38-.58,.55-.91,.84-.93,.82-.03-.02,.26-.37,.79-.96,.61-.67,1.37-1.5,2.27-2.49,1.92-2.1,4.58-5,7.46-8.25,2.88-3.25,5.44-6.23,7.29-8.4,.87-1.02,1.61-1.87,2.2-2.56,.53-.6,.83-.92,.86-.9Z" style="fill:#ebebeb;"></path><path d="M511.36,217.92c.11,.09-3.66,4.79-8.41,10.5-4.76,5.71-8.7,10.26-8.81,10.17-.11-.09,3.65-4.79,8.41-10.5,4.75-5.71,8.7-10.26,8.81-10.16Z" style="fill:#ebebeb;"></path><path d="M677.49,145.99c.1,.1-16.1,17.14-36.19,38.05-20.1,20.92-36.46,37.79-36.57,37.69s16.1-17.13,36.19-38.05c20.09-20.91,36.46-37.79,36.56-37.69Z" style="fill:#ebebeb;"></path></g><path d="M714.89,368.8c-190.13,19.75-513.69,29.98-714.56,4.49l-.33-121.11c200.87,25.49,524.43,15.26,714.56-4.49" style="fill:#ebebeb;"></path></g><g id="freepik--Floor--inject-94"><path d="M723.14,368.59s-.62,.08-1.84,.21c-1.22,.12-3.03,.31-5.4,.55-4.75,.47-11.75,1.17-20.75,2.07-9.01,.96-20.05,1.82-32.87,2.93-6.41,.52-13.26,1.18-20.53,1.69-7.27,.53-14.96,1.09-23.04,1.68-16.14,1.26-33.85,2.22-52.86,3.43-4.75,.31-9.58,.57-14.5,.81-4.91,.25-9.9,.51-14.97,.77-5.06,.26-10.2,.52-15.41,.79-2.6,.13-5.23,.26-7.87,.4-2.64,.11-5.3,.22-7.97,.33-10.7,.44-21.66,.88-32.85,1.34-11.2,.46-22.64,.72-34.28,1.1-5.82,.18-11.69,.36-17.61,.53-5.92,.12-11.89,.25-17.91,.38-12.03,.22-24.23,.52-36.58,.68-49.42,.65-96.51,.32-139.33-.52-10.7-.32-21.14-.63-31.27-.93-5.07-.16-10.06-.31-14.98-.46-4.92-.16-9.75-.44-14.51-.64-9.51-.45-18.69-.88-27.52-1.29-2.21-.11-4.39-.19-6.55-.33-2.16-.14-4.3-.28-6.41-.42-4.23-.28-8.36-.55-12.4-.81-8.08-.53-15.77-1.04-23.05-1.51-7.27-.63-14.12-1.23-20.53-1.78-6.41-.56-12.37-1.09-17.86-1.57-1.37-.12-2.71-.24-4.03-.36-1.31-.15-2.59-.3-3.84-.44-2.5-.29-4.87-.56-7.12-.81-8.99-1.04-15.97-1.84-20.72-2.39-2.36-.28-4.17-.49-5.39-.63-1.21-.15-1.83-.23-1.83-.23,0,0,.62,.05,1.84,.18,1.22,.13,3.03,.33,5.39,.58,4.74,.52,11.73,1.3,20.72,2.29,2.25,.25,4.62,.51,7.12,.79,1.25,.14,2.53,.28,3.84,.43,1.31,.11,2.65,.23,4.03,.35,5.49,.47,11.45,.98,17.86,1.53,6.41,.54,13.26,1.13,20.53,1.74,7.28,.47,14.97,.96,23.05,1.48,4.04,.26,8.17,.52,12.4,.8,2.11,.14,4.25,.27,6.41,.41,2.16,.14,4.35,.21,6.55,.32,8.83,.4,18.01,.82,27.52,1.26,4.76,.2,9.59,.47,14.51,.63,4.92,.15,9.91,.3,14.98,.45,10.14,.3,20.57,.6,31.27,.91,42.81,.82,89.89,1.13,139.31,.48,12.35-.16,24.55-.46,36.58-.68,6.01-.12,11.98-.25,17.9-.37,5.92-.18,11.79-.35,17.61-.53,11.64-.38,23.08-.63,34.27-1.09,11.2-.45,22.16-.89,32.85-1.32,2.67-.11,5.33-.21,7.97-.32,2.64-.13,5.26-.26,7.86-.39,5.21-.26,10.35-.52,15.41-.78,5.06-.25,10.05-.51,14.97-.75,4.91-.24,9.75-.49,14.5-.79,19-1.19,36.71-2.12,52.85-3.36,8.07-.58,15.76-1.12,23.04-1.64,7.28-.5,14.12-1.14,20.53-1.65,12.82-1.08,23.87-1.91,32.87-2.84,9.01-.86,16.01-1.52,20.76-1.97,2.37-.22,4.18-.39,5.4-.5,1.22-.11,1.84-.15,1.84-.15Z" style="fill:#263238;"></path><path d="M723.27,247.69s-.62,.08-1.84,.21c-1.22,.12-3.03,.31-5.4,.55-4.75,.47-11.75,1.17-20.75,2.07-9.01,.96-20.05,1.82-32.87,2.93-6.41,.52-13.26,1.18-20.53,1.69-7.27,.53-14.96,1.09-23.04,1.68-16.14,1.26-33.85,2.22-52.86,3.43-4.75,.31-9.58,.57-14.5,.81-4.91,.25-9.9,.51-14.97,.77-5.06,.26-10.2,.52-15.41,.79-2.6,.13-5.23,.26-7.87,.4-2.64,.11-5.3,.22-7.97,.33-10.7,.44-21.66,.88-32.85,1.34-11.2,.46-22.64,.72-34.28,1.1-5.82,.18-11.69,.36-17.61,.53-5.92,.12-11.89,.25-17.91,.38-12.03,.22-24.23,.52-36.58,.68-49.42,.65-96.51,.32-139.33-.52-10.7-.32-21.14-.63-31.27-.93-5.07-.16-10.06-.31-14.98-.46-4.92-.16-9.75-.44-14.51-.64-9.51-.45-18.69-.88-27.52-1.29-2.21-.11-4.39-.19-6.55-.33-2.16-.14-4.3-.28-6.41-.42-4.23-.28-8.36-.55-12.4-.81-8.08-.53-15.77-1.04-23.05-1.51-7.27-.63-14.12-1.23-20.53-1.78-6.41-.56-12.37-1.09-17.86-1.57-1.37-.12-2.71-.24-4.03-.36-1.31-.15-2.59-.3-3.84-.44-2.5-.29-4.87-.56-7.12-.81-8.99-1.04-15.97-1.84-20.72-2.39-2.36-.28-4.17-.49-5.39-.63-1.21-.15-1.83-.23-1.83-.23,0,0,.62,.05,1.84,.18,1.22,.13,3.03,.33,5.39,.58,4.74,.52,11.73,1.3,20.72,2.29,2.25,.25,4.62,.51,7.12,.79,1.25,.14,2.53,.28,3.84,.43,1.31,.11,2.65,.23,4.03,.35,5.49,.47,11.45,.98,17.86,1.53,6.41,.54,13.26,1.13,20.53,1.74,7.28,.47,14.97,.96,23.05,1.48,4.04,.26,8.17,.52,12.4,.8,2.11,.14,4.25,.27,6.41,.41,2.16,.14,4.35,.21,6.55,.32,8.83,.4,18.01,.82,27.52,1.26,4.76,.2,9.59,.47,14.51,.63,4.92,.15,9.91,.3,14.98,.45,10.14,.3,20.57,.6,31.27,.91,42.81,.82,89.89,1.13,139.31,.48,12.35-.16,24.55-.46,36.58-.68,6.01-.12,11.98-.25,17.9-.37,5.92-.18,11.79-.35,17.61-.53,11.64-.38,23.08-.63,34.27-1.09,11.2-.45,22.16-.89,32.85-1.32,2.67-.11,5.33-.21,7.97-.32,2.64-.13,5.26-.26,7.86-.39,5.21-.26,10.35-.52,15.41-.78,5.06-.25,10.05-.51,14.97-.75,4.91-.24,9.75-.49,14.5-.79,19-1.19,36.71-2.12,52.85-3.36,8.07-.58,15.76-1.12,23.04-1.64,7.28-.5,14.12-1.14,20.53-1.65,12.82-1.08,23.87-1.91,32.87-2.84,9.01-.86,16.01-1.52,20.76-1.97,2.37-.22,4.18-.39,5.4-.5,1.22-.11,1.84-.15,1.84-.15Z" style="fill:#263238;"></path></g><g id="freepik--character-2--inject-94"><g><g><path d="M509.35,227.23s6.46,15.39,5.8,20.39-21.36,66.09-21.36,66.09l-15.38-5.98s3.03-30.24,6.87-42.28c3.83-12.04,6.93-17.14,6.93-17.14l-5.82-9.84,22.95-11.24Z" style="fill:#ae7461;"></path><path d="M456.33,187.14c.24,.26,8.38,13.55,12.85,22.88,4.47,9.33,17.22,28.45,17.22,28.45l22.95-11.24s-7.92-26.57-7.94-27.02c-.02-.45-11.05-18.43-10.58-17.99,.47,.43-34.51,4.93-34.51,4.93Z" style="fill:#263238;"></path><g><polygon points="494.25 316.03 499.29 296.84 480.33 291.74 476.91 313.15 481.06 320.31 490.52 320.58 494.25 316.03" style="fill:#e0e0e0;"></polygon><g><path d="M506.62,341.83s-7.1-.27-12.52-2.6c-5.41-2.34-12.98-7.05-15.78-8.75-2.8-1.7-11.95-3.59-11.54-6.88,.41-3.29,10.38-12.64,10.38-12.64,0,0-.24,3.72,2.86,4.62,3.1,.91,9.59,1.3,9.59,1.3,0,0,3.92-3.14,5.73-2.71,1.81,.43-.45,5.23-.45,5.23,0,0,2.29,7.44,4.8,9.73,2.52,2.28,2.32,3.23,5.73,4.47,3.41,1.24,4.64,3.05,4.64,3.05,0,0,.64,3.34-.51,4.09-1.15,.74-2.94,1.09-2.94,1.09Z" style="fill:#FF725E;"></path><path d="M509.62,340.7c-1.1,.9-3,1.18-3,1.18,0,0-7.1-.27-12.52-2.6-5.41-2.34-12.98-7.05-15.78-8.75-2.8-1.7-11.95-3.59-11.54-6.88,.1-.9,.44-1.75,1.01-2.55,0,0,8.11,5.39,12.44,6.76s12.5,7.46,17.37,9.06c4.88,1.59,10.75,2.24,10.75,2.24l1.89-.33c-.05,.77,.03,1.34-.62,1.86Z" style="fill:#fff;"></path><path d="M498.89,327.93c-.08-.03-.39,.74-1.13,1.4-.72,.67-1.52,.91-1.49,.99,0,.08,.9-.04,1.7-.77,.8-.72,1-1.61,.93-1.62Z" style="fill:#fff;"></path><path d="M496.92,324.5c-.08-.04-.52,.86-1.47,1.57-.94,.73-1.92,.91-1.9,1,0,.08,1.07,.02,2.08-.76,1.02-.77,1.36-1.79,1.28-1.81Z" style="fill:#fff;"></path><path d="M495.72,321.46c-.06-.06-.68,.45-1.54,.91-.86,.47-1.63,.72-1.6,.8,.01,.08,.85-.05,1.75-.54,.9-.49,1.46-1.12,1.4-1.18Z" style="fill:#fff;"></path><path d="M476.7,322.27s.39,.28,1.07,.61c.68,.34,1.65,.77,2.73,1.19,1.09,.42,2.09,.74,2.83,.95,.73,.21,1.2,.3,1.21,.26,.02-.08-1.77-.66-3.93-1.49-2.16-.83-3.88-1.6-3.92-1.52Z" style="fill:#fff;"></path></g></g></g><g><g><g><circle cx="608.75" cy="301.37" r="60.84" transform="translate(302.93 907.89) rotate(-89.58)" style="fill:#e0e0e0;"></circle><path d="M669.5,304.64s0-.34,0-.99c0-.65,.07-1.62,.02-2.89-.02-2.54-.25-6.3-1.15-11.05-.95-4.72-2.65-10.45-5.86-16.52-3.2-6.05-7.9-12.45-14.48-18.04-3.27-2.8-7.03-5.36-11.2-7.53-4.17-2.17-8.76-3.98-13.69-5.14-4.92-1.18-10.17-1.83-15.56-1.7-2.7,.01-5.43,.31-8.17,.7-2.74,.43-5.49,1.07-8.22,1.87-10.89,3.29-21.42,9.97-29.27,19.59-7.88,9.55-12.97,22-13.66,35.15-.74,13.15,2.98,26.08,9.79,36.43,6.77,10.41,16.52,18.18,26.99,22.63,2.63,1.1,5.29,2.02,7.97,2.75,2.69,.68,5.37,1.27,8.05,1.57,5.35,.71,10.64,.63,15.66-.01,5.03-.63,9.79-1.93,14.17-3.64,4.38-1.71,8.39-3.85,11.95-6.29,7.14-4.85,12.51-10.71,16.34-16.38,3.84-5.69,6.15-11.2,7.6-15.79,1.41-4.62,2.04-8.33,2.34-10.86,.18-1.26,.22-2.23,.29-2.88,.06-.65,.1-.98,.1-.98,0,0-.03,1.34-.29,3.87-.26,2.53-.86,6.26-2.25,10.91-1.43,4.62-3.72,10.16-7.55,15.89-3.82,5.71-9.2,11.62-16.37,16.52-3.57,2.46-7.6,4.62-12.01,6.36-4.4,1.73-9.19,3.05-14.26,3.69-5.06,.66-10.38,.75-15.77,.04-2.7-.3-5.41-.89-8.11-1.58-2.7-.73-5.38-1.66-8.03-2.76-10.56-4.47-20.4-12.29-27.23-22.79-6.87-10.43-10.63-23.48-9.88-36.74,.69-13.26,5.83-25.82,13.78-35.45,7.92-9.7,18.55-16.42,29.52-19.72,2.75-.81,5.52-1.44,8.28-1.88,2.77-.39,5.52-.68,8.24-.69,5.44-.12,10.72,.53,15.67,1.74,4.97,1.18,9.58,3.01,13.77,5.21,4.2,2.2,7.97,4.78,11.25,7.61,6.6,5.65,11.31,12.1,14.5,18.19,3.19,6.11,4.88,11.87,5.8,16.61,.88,4.77,1.07,8.54,1.06,11.09-.01,2.55-.13,3.88-.13,3.88Z" style="fill:#263238;"></path></g><circle cx="608.75" cy="301.37" r="56.59" transform="translate(-60.28 183.92) rotate(-16.38)" style="fill:#455a64;"></circle><g><path d="M550.12,317.59c4.88,17.65,17.55,32.23,34.28,39.54l22.27-53.01-56.55,13.47Z" style="fill: none;"></path><path d="M612.03,240.61c-20.03-1.08-38.31,7.65-50.18,22l11.67-10.29,32.41,45.68,.54,1.13c6.62-7.93,28.98-34.66,38.94-46.34" style="fill: none;"></path><path d="M611.02,304l31.92,47.68c15.15-10.31,25.5-27.32,26.56-47.03,.13-2.34,.1-4.66-.03-6.95l-58.45,6.31Z" style="fill: none;"></path><path d="M607.29,304.41l-.32-.36-.3,.07-22.27,53.01c6.49,2.84,13.59,4.59,21.08,4.99,13.84,.75,26.84-3.2,37.47-10.44l-31.92-47.68-3.73,.4Z" style="opacity: .1;"></path><path d="M607.99,302.32l2.22,.48,.81,1.21,58.45-6.31c-1.08-18.2-10.22-34.42-24.06-44.89-9.96,11.68-32.32,38.41-38.94,46.34l1.52,3.18Z" style="opacity: .1;"></path><polygon points="607.99 302.32 608.63 303.65 606.96 304.04 607.29 304.41 611.02 304 610.21 302.8 607.99 302.32" style="opacity: .1;"></polygon><polygon points="607.99 302.32 608.63 303.65 606.96 304.04 607.29 304.41 611.02 304 610.21 302.8 607.99 302.32" style="opacity: .1;"></polygon><path d="M606.78,303.84l-2.19-2.44s.68-.82,1.88-2.26l-.54-1.13-32.41-45.68-11.67,10.29c-8.02,9.69-13.12,21.94-13.85,35.47-.36,6.76,.41,13.32,2.12,19.5l56.55-13.47,.12-.27Z" style="opacity: .1;"></path><polygon points="606.66 304.12 606.96 304.04 606.78 303.84 606.66 304.12" style="opacity: .1;"></polygon><polygon points="606.66 304.12 606.96 304.04 606.78 303.84 606.66 304.12" style="opacity: .1;"></polygon><path d="M607.99,302.32l-1.52-3.18c-1.2,1.44-1.88,2.26-1.88,2.26l2.19,2.44,.69-1.64,.52,.11Z" style="opacity: .1;"></path><path d="M607.99,302.32l-1.52-3.18c-1.2,1.44-1.88,2.26-1.88,2.26l2.19,2.44,.69-1.64,.52,.11Z" style="opacity: .1;"></path><polygon points="607.99 302.32 607.47 302.2 606.78 303.84 606.96 304.04 608.63 303.65 607.99 302.32" style="opacity: .1;"></polygon><polygon points="607.99 302.32 607.47 302.2 606.78 303.84 606.96 304.04 608.63 303.65 607.99 302.32" style="opacity: .1;"></polygon><polygon points="607.99 302.32 607.47 302.2 606.78 303.84 606.96 304.04 608.63 303.65 607.99 302.32" style="opacity: .1;"></polygon></g></g><g><g><circle cx="427.79" cy="306.75" r="60.84" transform="translate(120.47 734.13) rotate(-89.92)" style="fill:#e0e0e0;"></circle><path d="M488.54,310.03s0-.34,0-.99c0-.65,.07-1.62,.02-2.89-.02-2.54-.25-6.3-1.15-11.05-.95-4.72-2.65-10.45-5.86-16.52-3.2-6.05-7.9-12.45-14.48-18.04-3.27-2.8-7.03-5.36-11.2-7.53-4.17-2.17-8.76-3.98-13.69-5.14-4.92-1.18-10.17-1.83-15.56-1.7-2.7,.01-5.43,.31-8.17,.7-2.74,.43-5.49,1.07-8.22,1.87-10.89,3.29-21.42,9.97-29.27,19.59-7.88,9.55-12.97,22-13.66,35.15-.74,13.15,2.98,26.08,9.79,36.43,6.77,10.41,16.52,18.18,26.99,22.63,2.63,1.1,5.29,2.02,7.97,2.75,2.69,.68,5.37,1.27,8.05,1.57,5.35,.71,10.64,.63,15.66-.01,5.03-.63,9.79-1.93,14.17-3.64,4.38-1.71,8.39-3.85,11.95-6.29,7.14-4.85,12.51-10.71,16.34-16.38,3.84-5.69,6.15-11.2,7.6-15.79,1.41-4.62,2.04-8.33,2.34-10.86,.18-1.26,.22-2.23,.29-2.88,.06-.65,.1-.98,.1-.98,0,0-.03,1.34-.29,3.87-.26,2.53-.86,6.26-2.25,10.91-1.43,4.62-3.72,10.16-7.55,15.89-3.82,5.71-9.2,11.62-16.37,16.52-3.57,2.46-7.6,4.62-12.01,6.36-4.41,1.73-9.19,3.05-14.26,3.69-5.06,.66-10.38,.75-15.77,.04-2.7-.3-5.41-.89-8.11-1.58-2.7-.73-5.38-1.66-8.03-2.76-10.56-4.47-20.4-12.29-27.23-22.79-6.87-10.43-10.63-23.48-9.88-36.74,.69-13.26,5.83-25.82,13.78-35.45,7.92-9.7,18.55-16.42,29.52-19.72,2.75-.81,5.52-1.44,8.28-1.88,2.77-.39,5.52-.68,8.24-.69,5.44-.12,10.72,.53,15.67,1.74,4.97,1.18,9.58,3.01,13.77,5.21,4.2,2.2,7.97,4.78,11.25,7.61,6.6,5.65,11.31,12.1,14.5,18.19,3.19,6.11,4.88,11.87,5.8,16.61,.88,4.77,1.07,8.54,1.06,11.09-.01,2.55-.13,3.88-.13,3.88Z" style="fill:#263238;"></path></g><circle cx="427.79" cy="306.75" r="56.59" transform="translate(-.36 613) rotate(-71.22)" style="fill:#455a64;"></circle><g><path d="M426.33,309.79l-.32-.36-.3,.07-22.27,53.01c6.49,2.84,13.59,4.59,21.08,4.99,13.84,.75,26.84-3.2,37.47-10.44l-31.92-47.68-3.73,.4Z" style="opacity: .1;"></path><path d="M427.03,307.7l2.22,.48,.81,1.21,58.45-6.31c-1.08-18.2-10.22-34.42-24.06-44.89-9.96,11.68-32.32,38.41-38.94,46.34l1.52,3.18Z" style="opacity: .1;"></path><polygon points="427.03 307.7 427.67 309.03 426 309.43 426.33 309.79 430.06 309.39 429.25 308.18 427.03 307.7" style="opacity: .1;"></polygon><polygon points="427.03 307.7 427.67 309.03 426 309.43 426.33 309.79 430.06 309.39 429.25 308.18 427.03 307.7" style="opacity: .1;"></polygon><path d="M425.82,309.23l-2.19-2.44s.68-.82,1.88-2.26l-.54-1.13-32.41-45.68-11.67,10.29c-8.02,9.69-13.12,21.94-13.85,35.47-.36,6.76,.41,13.32,2.12,19.5l56.55-13.47,.12-.27Z" style="opacity: .1;"></path><polygon points="425.7 309.5 426 309.43 425.82 309.23 425.7 309.5" style="opacity: .1;"></polygon><polygon points="425.7 309.5 426 309.43 425.82 309.23 425.7 309.5" style="opacity: .1;"></polygon><path d="M427.03,307.7l-1.52-3.18c-1.2,1.44-1.88,2.26-1.88,2.26l2.19,2.44,.69-1.64,.52,.11Z" style="opacity: .1;"></path><path d="M427.03,307.7l-1.52-3.18c-1.2,1.44-1.88,2.26-1.88,2.26l2.19,2.44,.69-1.64,.52,.11Z" style="opacity: .1;"></path><polygon points="427.03 307.7 426.51 307.59 425.82 309.23 426 309.43 427.67 309.03 427.03 307.7" style="opacity: .1;"></polygon><polygon points="427.03 307.7 426.51 307.59 425.82 309.23 426 309.43 427.67 309.03 427.03 307.7" style="opacity: .1;"></polygon><polygon points="427.03 307.7 426.51 307.59 425.82 309.23 426 309.43 427.67 309.03 427.03 307.7" style="opacity: .1;"></polygon></g></g><g><polygon points="462.32 227.04 452.28 195.28 461.01 194.91 471.87 226.64 462.32 227.04" style="fill:#e0e0e0;"></polygon><path d="M462.32,227.04s.24-.03,.67-.07c.47-.03,1.1-.07,1.88-.12,1.67-.09,4.03-.22,6.99-.38l-.15,.22c-2.54-7.23-6.44-18.52-10.78-31.2l-.17-.5,.26,.18c-3,.12-5.93,.25-8.73,.36l.23-.33c2.81,9.05,5.27,16.96,7.05,22.67,.86,2.82,1.55,5.09,2.04,6.7l.54,1.82c.12,.42,.18,.64,.17,.66,0,.01-.08-.19-.22-.58-.15-.44-.35-1.02-.59-1.75-.52-1.59-1.26-3.83-2.17-6.61-1.84-5.72-4.38-13.66-7.3-22.74l-.1-.32h.33c2.8-.13,5.72-.26,8.72-.39h.19l.06,.18,.17,.5c4.34,12.68,8.18,24,10.6,31.26l.07,.21h-.22c-3,.1-5.39,.17-7.08,.22-.78,.02-1.39,.03-1.86,.04-.42,0-.63,0-.62-.01Z" style="fill:#263238;"></path></g><path d="M581.88,214.67c-.07,2.15,1.27,4.09,3.3,4.81,4,1.4,10.4,3.52,12.72,3.59,2.61,.08,12.31-.42,16.99-.68,1.42-.08,2.52-1.29,2.46-2.71h0c-.06-1.44-1.28-2.55-2.71-2.49l-16.1,.68-10.77-3.48,.07-6.62-6.21,.88,.27,6.04Z" style="fill:#263238;"></path><g><path d="M488.69,342.19l13.55-25.75c.97-1.91,.13-4.24-1.83-5.09h0c-1.81-.78-3.92,0-4.79,1.76l-13.23,25.98,6.31,3.1Z" style="fill:#263238;"></path><rect x="475.5" y="335.74" width="22.68" height="6.58" transform="translate(756.75 867.33) rotate(-151.92)" style="fill:#263238;"></rect></g><g><path d="M636.42,175.01c-3.04,5.42-6.12,10.82-9.3,16.15-.96,1.61-1.93,3.22-2.93,4.81-.19,.3-.39,.61-.58,.91-.09,.14-.18,.28-.27,.41,.29-.43,.09-.14-.06,.09-.27,.39-.55,.76-.84,1.14-.15,.2-.46,.33-.06,.11,.13-.07,.54-.37,.59-.37-.16-.02-.48,.13-.64,.16-.38,.09-.75,.17-1.13,.25-.74,.16,.21-.04-.17,.04-.32,.07-.64,.13-.96,.2-7.44,1.52-14.9,2.91-22.35,4.32-5.8,1.1-11.61,2.16-17.41,3.27-.91,.17-1.69,.48-2.26,1.24-.85,1.13-1.62,2.32-2.43,3.48-2.08,2.98-4.16,5.96-6.24,8.94-.14,.2-.28,.4-.42,.6-.77,1.11-.84,2.58,.26,3.53,.94,.81,2.75,.86,3.53-.26,3.1-4.44,6.21-8.88,9.31-13.33,0,0-.11,.06,0,0,10.16-1.89,18.61-2.94,28.76-4.9,2.82-.54,5.65-1.09,8.47-1.66,1.71-.34,3.49-.58,5.15-1.09,1.64-.5,2.53-2.21,3.41-3.55,1.66-2.53,3.2-5.13,4.74-7.74,2.84-4.82,5.62-9.67,8.35-14.55,1.58-2.82-2.92-5-4.49-2.2h0Z" style="fill:#e0e0e0;"></path><path d="M636.42,175.01s.17-.6,1.13-1.13c.48-.22,1.19-.34,1.95-.09,.73,.24,1.59,.85,1.8,1.92,.08,.53-.07,1.09-.33,1.6-.28,.49-.57,1-.87,1.54-.61,1.07-1.27,2.24-1.98,3.49-1.43,2.51-3.06,5.37-4.86,8.55-.9,1.59-1.93,3.21-2.96,4.93-1.06,1.71-2.09,3.51-3.31,5.33-.62,.89-1.45,1.81-2.61,2.13-1.09,.33-2.22,.55-3.36,.76-2.28,.44-4.62,.9-7.04,1.38-4.82,.98-9.94,1.89-15.28,2.75-5.34,.87-10.91,1.73-16.61,2.8l.07-.02-.05,.02h0l-.23-.46h.02l.03-.02c.13-.06,.28-.01,.34,.11,.04,.09,.03,.19-.02,.26-1.56,2.23-3.15,4.51-4.76,6.82-.81,1.16-1.62,2.32-2.44,3.5-.41,.59-.82,1.17-1.23,1.76l-.62,.89c-.19,.28-.42,.64-.77,.87-.81,.55-1.84,.56-2.69,.21-.87-.36-1.52-1.21-1.6-2.15-.11-.93,.34-1.85,.85-2.5,.48-.69,.96-1.37,1.43-2.05,1.9-2.72,3.78-5.41,5.62-8.05,.46-.66,.92-1.32,1.38-1.97,.24-.32,.43-.67,.75-.97,.31-.3,.69-.52,1.08-.68,.8-.3,1.58-.36,2.34-.53,.77-.14,1.53-.29,2.29-.43,3.04-.57,6.01-1.12,8.91-1.66,5.79-1.1,11.28-2.14,16.4-3.12,2.56-.49,5.03-.96,7.4-1.41,1.18-.23,2.34-.45,3.47-.66,.42-.09,.84-.17,1.25-.26,.27-.06,.55-.12,.82-.18,.28-.03,.45-.2,.87-.2l-.05,.36s.05,0,.07,0h0l-.04,.03-.09,.06-.18,.12c-.11,.08-.27,.17-.38,.23h-.02v.02s-.01,.02,.04-.04c.15-.1-.23-.42-.18-.28h-.03v.02h-.02l.03-.02,.07-.06s.07-.07,.12-.13l.25-.33,.48-.65,.23-.32,.05-.08v-.02h.02v-.02c.09,.06-.17-.16,.31,.06,0,.21-.02,.1-.01,.14h0v.02l-.03,.04-.11,.16c-.05,.08-.16,.1-.24,.05-.08-.05-.1-.16-.05-.24,2.18-3.4,4.06-6.51,5.64-9.27,1.6-2.74,2.97-5.1,4.09-7.02,1.12-1.9,1.98-3.37,2.58-4.39,.29-.48,.52-.86,.68-1.13,.16-.25,.25-.38,.25-.38,0,0-.06,.14-.2,.4-.15,.28-.36,.66-.64,1.15-.58,1.03-1.42,2.52-2.5,4.44-1.1,1.94-2.45,4.31-4.02,7.07-1.56,2.77-3.42,5.9-5.58,9.32l-.29-.19,.11-.16,.03-.04h0s0-.01,0,0c0,.04-.02-.07-.01,.14,.47,.22,.22,0,.3,.06h0l-.06,.09-.23,.33c-.16,.22-.32,.44-.48,.66l-.25,.34c-.04,.06-.11,.14-.17,.18l-.1,.08-.05,.04h-.02l-.02,.02h-.03c.05,.15-.34-.18-.18-.28,.05-.06,.04-.04,.05-.05h.02l.03-.03c.14-.08,.24-.13,.36-.22l.18-.12,.1-.06,.06-.03,.04-.02h.03s.07-.02,.1-.02l-.05,.36c-.13-.01-.46,.16-.73,.2-.27,.06-.55,.12-.82,.18-.41,.09-.83,.18-1.25,.27-1.13,.22-2.29,.45-3.47,.68-2.37,.46-4.83,.94-7.39,1.44-5.12,.99-10.61,2.05-16.4,3.17-2.9,.55-5.87,1.11-8.9,1.68-.76,.14-1.52,.29-2.29,.43-.76,.16-1.57,.24-2.25,.5-.34,.13-.66,.32-.92,.57-.26,.23-.46,.59-.7,.91l-1.37,1.96c-1.84,2.64-3.71,5.32-5.62,8.05l-1.43,2.05c-.51,.66-.84,1.37-.76,2.15,.06,.75,.58,1.44,1.28,1.72,.7,.29,1.58,.27,2.19-.16,.26-.17,.43-.44,.64-.75l.62-.89c.41-.59,.82-1.18,1.23-1.76,.82-1.17,1.63-2.34,2.44-3.49,1.62-2.31,3.21-4.59,4.77-6.82l.33,.38h-.03v.02h-.02l-.23-.45h0l.05-.03s.05-.02,.07-.02c5.72-1.06,11.29-1.92,16.63-2.78,5.34-.85,10.45-1.75,15.27-2.71,2.42-.46,4.76-.94,7.05-1.35,1.14-.2,2.26-.41,3.32-.73,1.04-.28,1.8-1.1,2.41-1.97,1.21-1.78,2.26-3.6,3.32-5.29,1.04-1.71,2.08-3.32,2.99-4.91,1.83-3.16,3.48-6.01,4.92-8.51,.72-1.25,1.4-2.4,2.01-3.47,.58-1.07,1.38-2,1.22-2.99-.17-.97-.97-1.58-1.67-1.81-.72-.26-1.4-.16-1.87,.04-.94,.48-1.13,1.09-1.17,1.04Z" style="fill:#263238;"></path></g><path d="M502.57,295.41c-2.6,.13-5.21,.54-7.8,.82-5.87,.64-11.73,1.28-17.59,1.93-12.99,1.43-25.98,2.87-38.97,4.32-2.96,.33-5.93,.66-8.89,.99-.15,.02-.33,.1-.36,.28-.45,2.42-.89,4.84-1.34,7.26-.04,.22,.06,.38,.26,.46,5.05,2.01,10.12,3.97,15.19,5.92,10.02,3.84,20.08,7.61,30.22,11.12,4.57,1.58,9.15,3.12,13.79,4.48,2.91,.85,5.92,1.8,8.95,2.06,3.47,.3,5.66-2.53,7.09-5.35,2.23-4.39,3.33-9.36,4.19-14.18,.34-1.89,.62-3.78,.86-5.69,.09-.72,.36-1.65,.19-2.36-.1-.42-.4-.88-.58-1.27-.46-1-.92-2-1.38-3.01-.98-2.14-1.97-4.28-2.95-6.42-.18-.4-.37-.8-.55-1.19-.2-.44-.85-.06-.65,.38,1.59,3.47,3.19,6.93,4.78,10.4,.21,.45,.57,.98,.68,1.47-.09-.39-.08,.23-.1,.39-.15,1.41-.33,2.82-.55,4.23-.71,4.71-1.66,9.46-3.32,13.93-1.13,3.05-3.18,8.01-7.12,7.95-2.73-.04-5.56-.99-8.16-1.73-4.36-1.24-8.67-2.66-12.96-4.13-10-3.41-19.9-7.1-29.77-10.86-3.83-1.46-7.66-2.94-11.48-4.43-1.28-.5-2.57-1.01-3.85-1.51-.61-.24-1.41-.74-2.07-.82-.08-.01-.18-.07-.26-.1l.26,.46c.45-2.42,.9-4.84,1.34-7.26-.12,.09-.24,.18-.36,.28,8.15-.91,16.3-1.81,24.45-2.72,13.08-1.45,26.15-2.9,39.23-4.33,3.17-.35,6.38-.86,9.57-1.02,.48-.02,.48-.77,0-.75Z" style="fill:#e0e0e0;"></path><path d="M575.96,222.19l-6.26-3.72s-6.25,4.58-11.27,6.7c-5.02,2.12-83.18,7.03-83.18,7.03l-2.37-8.73-13.64,1.5s7.12,20.02,6.34,23.54c-.78,3.52-33.58,46.52-36.91,50.45-3.52,4.16-7.85,6.6-7.85,6.6l.25,6.03,61.15,6.95,.83-8.69s-42.08-.84-45.9-2.42c-2.82-1.17-5.44-2.33-3.32-7.06,1.76-3.92,23.59-31.89,31.05-41.39,1.26-1.6,3.69-1.57,4.9,.07,3.86,5.23,11.35,15.74,14.86,23.16,4.84,10.25,7.06,18.75,7.06,18.75l8.92-3.63s-9.96-27.67-13.84-36.34c-3.87-8.67-10.11-24.44-10.11-24.44l81.36-2.92s4.09,.69-.17,6.01c-4.24,5.29-52.13,58.41-52.13,58.41l7.35,6.2,57.91-58.63,32.58,55.64,5.14-2.34-32.76-76.73Z" style="fill:#263238;"></path><path d="M428.08,186.19c.79-.4,14.64,7.82,18.53,8.78,4.79,1.18,30.5-1.28,30.5-1.28,0,0,1.08-2.76-1.7-4.28-2.78-1.51-14.29-2.99-24.56-3.21-10.27-.22-24.9-3.93-22.77-.01Z" style="fill:#455a64;"></path><g><circle cx="497.33" cy="315.35" r="19.84" transform="translate(104.28 753.87) rotate(-80.51)" style="fill:#e0e0e0;"></circle><path d="M517.15,314.52s-.03-.11-.06-.32c-.03-.24-.07-.55-.11-.94-.04-.41-.1-.92-.24-1.51-.12-.59-.25-1.28-.51-2.02-.42-1.51-1.22-3.28-2.43-5.14-1.22-1.85-2.95-3.76-5.25-5.35-2.29-1.57-5.16-2.87-8.42-3.3-3.24-.41-6.86-.16-10.25,1.3-1.71,.68-3.35,1.66-4.84,2.88-.77,.58-1.44,1.29-2.14,1.98-.63,.76-1.29,1.5-1.82,2.35-2.27,3.3-3.46,7.48-3.32,11.72,.12,2.12,.55,4.19,1.27,6.13,.7,1.95,1.79,3.71,3.02,5.27,.6,.8,1.32,1.49,2.01,2.19,.76,.63,1.48,1.28,2.3,1.8,1.59,1.09,3.3,1.93,5.06,2.46,3.51,1.17,7.14,1.12,10.33,.43,3.21-.71,5.95-2.24,8.11-4,2.16-1.77,3.72-3.83,4.78-5.77,1.05-1.95,1.7-3.78,1.99-5.32,.2-.76,.26-1.46,.34-2.06,.09-.6,.11-1.11,.12-1.52,.01-.39,.03-.7,.03-.94,.01-.21,.02-.32,.03-.32,0,0,.02,.11,.02,.32,0,.24,.01,.55,.02,.95,.02,.42,.01,.93-.07,1.54-.06,.61-.11,1.31-.29,2.08-.26,1.56-.89,3.43-1.93,5.42-1.05,1.99-2.61,4.09-4.8,5.92-2.18,1.81-4.97,3.39-8.25,4.13-3.26,.72-6.97,.79-10.57-.4-1.81-.54-3.57-1.4-5.2-2.51-.84-.52-1.59-1.19-2.36-1.84-.71-.72-1.45-1.42-2.07-2.24-1.27-1.61-2.39-3.41-3.11-5.41-.74-1.99-1.18-4.12-1.3-6.29-.14-4.36,1.08-8.64,3.41-12.03,.55-.87,1.23-1.63,1.87-2.41,.72-.71,1.41-1.43,2.2-2.03,1.53-1.24,3.21-2.25,4.97-2.93,3.49-1.48,7.19-1.73,10.5-1.28,3.33,.46,6.24,1.81,8.57,3.43,2.33,1.64,4.06,3.6,5.28,5.49,1.21,1.9,1.98,3.71,2.38,5.24,.25,.75,.36,1.45,.47,2.05,.13,.6,.17,1.11,.19,1.53,.03,.39,.05,.7,.06,.94,.01,.21,.01,.32,0,.32Z" style="fill:#263238;"></path></g><path d="M475.25,232.18c0,.14-1.78,.34-3.99,.43-2.21,.09-4.01,.05-4.01-.09,0-.14,1.78-.34,3.99-.43,2.21-.09,4.01-.05,4.01,.09Z" style="fill:#455a64;"></path><path d="M476.3,236.54c0,.14-1.78,.34-3.99,.43-2.21,.09-4.01,.05-4.01-.09,0-.14,1.78-.34,3.99-.43,2.21-.09,4.01-.05,4.01,.09Z" style="fill:#455a64;"></path><path d="M430.62,306.63c.07,1.56-1.15,2.89-2.71,2.95-1.56,.07-2.89-1.15-2.95-2.71-.07-1.56,1.15-2.89,2.71-2.95,1.56-.07,2.89,1.15,2.95,2.71Z" style="fill:#e0e0e0;"></path><path d="M611.15,300.93c.09,2.09-1.54,3.86-3.63,3.95-2.09,.09-3.86-1.54-3.95-3.63-.09-2.09,1.54-3.86,3.63-3.95,2.09-.09,3.86,1.54,3.95,3.63Z" style="fill:#e0e0e0;"></path><path d="M507.28,315.16c.23,5.44-3.99,10.03-9.43,10.26s-10.03-3.99-10.26-9.43c-.23-5.44,3.99-10.03,9.43-10.26,5.44-.23,10.03,3.99,10.26,9.43Z" style="fill:#263238;"></path><g><path d="M497.99,285.38l-4.28,28.78c-.29,2.12,1.27,4.05,3.41,4.2h0c1.97,.14,3.7-1.29,3.94-3.24l3.9-28.89-6.98-.85Z" style="fill:#455a64;"></path><rect x="489.44" y="284.47" width="22.68" height="6.58" transform="translate(49.89 -73.19) rotate(8.8)" style="fill:#455a64;"></rect></g></g><g><g><path d="M608.04,137.47l-15.02,13.12c6.71,.78,13.88-2.49,19-6.24-.92-2.38-2.56-4.76-3.98-6.89Z" style="fill:#263238;"></path><g><g><g><path d="M570.59,127.05c2.41-3.17,4.84-6.35,7.76-9.06,2.92-2.71,6.36-4.96,10.21-5.95,.58-.15,4.72-.85,5.02-.32,.21,.38-3.33,1.49-3.51,1.88-1.74,3.73-4.93,6.64-8.49,8.71-3.56,2.07-7.08,3.48-10.99,4.74" style="fill:#263238;"></path><path d="M602.62,144.5c7.49-5.51,9.49-15.86,4.59-23.77l-.49-.79c-5.74-8.17-15.88-7.86-23.89-1.9l-26.82,19.29-6.34,17.36,8.86,7.73c2.32-1.58,10.86-7.28,10.87-7.26,0,0,6.31,7.36,14.52,2.42,3.97-2.39,11.73-7.97,18.7-13.1Z" style="fill:#ae7461;"></path><path d="M569.4,155.17s-3.48-4.95-3.43-12.55c0,0-4.55,6.34,1.22,14.02l2.21-1.47Z" style="fill:#6f4439;"></path><path d="M593.55,146.38c-.6,.4-1.44,.22-1.87-.4-.43-.62-.29-1.45,.31-1.85,.6-.4,1.44-.23,1.87,.39,.43,.62,.29,1.45-.31,1.85Z" style="fill:#263238;"></path><path d="M597.95,145c-.24-.05-.13-1.34-.91-2.59-.76-1.26-1.97-1.78-1.9-2.01,.03-.11,.39-.13,.93,.09,.53,.21,1.23,.71,1.71,1.49,.48,.78,.6,1.62,.54,2.18-.06,.57-.25,.87-.36,.84Z" style="fill:#263238;"></path><path d="M586.23,135.57c-.6,.4-1.44,.22-1.87-.4-.43-.62-.29-1.45,.31-1.85,.6-.4,1.44-.22,1.87,.39,.43,.62,.29,1.45-.31,1.85Z" style="fill:#263238;"></path><path d="M590.03,133.31c-.24-.05-.14-1.34-.91-2.59-.76-1.26-1.97-1.78-1.9-2.01,.03-.11,.39-.13,.93,.09,.53,.21,1.23,.71,1.71,1.49,.48,.78,.6,1.62,.54,2.18-.06,.57-.25,.87-.36,.84Z" style="fill:#263238;"></path><path d="M583.23,143.35c.07-.05,.68,.65,1.62,1.81,.23,.3,.48,.56,.73,.48,.28-.07,.54-.41,.82-.8,.59-.78,1.2-1.6,1.85-2.45,2.65-3.46,4.92-6.17,5.05-6.06,.14,.11-1.9,3-4.55,6.46-.66,.84-1.29,1.65-1.89,2.42-.29,.35-.57,.81-1.15,.94-.29,.06-.61-.07-.79-.24-.19-.17-.3-.34-.41-.5-.85-1.23-1.35-2.01-1.28-2.06Z" style="fill:#263238;"></path><path d="M592.71,131.49c-.42,.04-.77-1.23-1.57-2.55-.78-1.34-1.74-2.27-1.49-2.6,.12-.15,.55-.11,1.11,.2,.55,.3,1.21,.88,1.68,1.67,.47,.8,.66,1.64,.65,2.25,0,.62-.18,1-.38,1.03Z" style="fill:#263238;"></path><path d="M602.69,142.09c-.45-.08-.8-1.27-1.56-2.5-.73-1.25-1.62-2.12-1.48-2.55,.08-.19,.46-.21,1.02,.06,.55,.27,1.24,.87,1.75,1.72,.51,.85,.72,1.73,.7,2.34-.01,.61-.21,.94-.43,.91Z" style="fill:#263238;"></path><path d="M577.22,122.45c-.03-.18-1.81-6.62-7.27-3-5.46,3.62-.7,8.36-.53,8.26,.16-.09,7.8-5.27,7.8-5.27Z" style="fill:#ae7461;"></path><path d="M570.38,124.68s-.13-.05-.31-.16c-.18-.11-.4-.35-.49-.7-.17-.72,.42-1.81,1.39-2.49,.49-.34,1.03-.55,1.54-.64,.51-.1,.96-.03,1.21,.23,.26,.24,.22,.57,.11,.73-.1,.17-.24,.21-.23,.25,0,.02,.17,.06,.37-.14,.09-.09,.18-.24,.2-.44,.02-.2-.05-.43-.21-.62-.31-.4-.95-.52-1.51-.43-.58,.07-1.19,.29-1.74,.68-1.08,.77-1.73,2.01-1.44,2.95,.15,.45,.48,.69,.72,.77,.25,.08,.39,.03,.39,0Z" style="fill:#6f4439;"></path><path d="M609.24,134.91c1.08,.55,2.14-4.01,1.66-6.83-.73-4.26-3.19-9.86-6.07-12.29-3.48-2.93-7.31-4.72-11.84-4.3-4.53,.41-8.83,2.33-12.52,4.98-1.13,.81-2.24,1.74-2.8,3.01-.69,1.57-.46,3.54-2.16,4.59-.62,.39-1.11,.97-1.28,1.68-.38,1.71,1.43,2.25,2.8,2.14,2.93-.25,5.56-1.83,8.07-3.37,1.78-1.1,3.6-2.22,4.93-3.84,.73-.88,1.29-1.88,2.06-2.72,.77-.84,1.83-1.51,2.97-1.45,.18,.01,.44,.06,.74,.14,2.39,.63,4.25,2.5,4.87,4.89,.99,3.79,2.9,10.1,4.86,10.76,2.82,.95,4.11,.76,4.11,.76l-.41,1.85Z" style="fill:#263238;"></path><path d="M579.88,140.03c.14,.18-1.1,1.03-1.26,2.7-.16,1.67,.89,2.89,.72,3.02-.07,.07-.44-.13-.84-.68-.39-.54-.77-1.46-.67-2.48,.1-1.02,.63-1.79,1.11-2.18,.49-.4,.89-.47,.94-.38Z" style="fill:#263238;"></path></g><path d="M587.03,116.03s-11.11,6.68-18.09,13.81c-7.24,7.41-2.26,18.78-2.26,18.78,0,0-1.14-12.89,7.21-19.02,7.56-5.56,15.21-10.54,15.21-10.54l-2.08-3.03Z" style="fill:#455a64;"></path></g><g style="opacity: .4;"><path d="M594.88,120.22c6.96,5.89,11.38,13.86,12.7,22.88-3.7,4.09-8.17,7.74-13.39,9.52-.47,.16-.98,.31-1.45,.15-.53-.18-.85-.71-1.12-1.2-1.5-2.65-3.01-5.36-3.66-8.33-.25-1.14-.4-2.39-1.22-3.21-.7-.71-1.74-.94-2.65-1.35-1.67-.76-2.96-2.19-3.88-3.78-.91-1.59-1.48-3.35-2.05-5.1,0,0-.52-2.13,2.48-5.88,3.01-3.75,14.23-3.69,14.23-3.69Z" style="fill:#e0e0e0;"></path></g><path d="M616.19,126.03c-.1-.61-.23-1.21-.36-1.79h0c-2.28-7.07-5.64-12.11-12.23-16.06-5.9-3.53-12.45-5.96-19.3-6.61-6.85-.65-13.75-.09-20.61,.46-.69,.06-1.5,.19-1.82,.8-.31,.59,0,1.31,.33,1.89,.26,.46,10.85,13.23,19.37,17.58l10.02-.99c6.93,4.98,8.62,11.6,9.35,12.95,1.56,2.88,4.96,12.79,7.29,12.22,2.19-.54,5.36-2.96,6.55-5.71,.87-2.01,2.75-6.7,1.4-14.76Z" style="fill:#263238;"></path></g><path d="M588.35,113.48c-3.24-2.41-7.12-3.77-10.94-5.09-2.73-.94-5.47-1.89-8.31-2.4l-7.34-2.47c1.25,5.43,11.73,19.24,16.58,27.03,1.26-3.44,3.88-6.47,7.32-7.74,3.44-1.27,7.66-.54,10.16,2.14-1.03-4.54-3.73-8.69-7.47-11.47Z" style="fill:#263238;"></path><path d="M582.42,124.68l-15.01-22.95c1.99-.16,4.07-.28,6.24-.38,0,0,9.22,9.23,10.4,11.17,1.18,1.94,7.78,10.04,7.78,10.04-1.79-.63-7.18,.31-9.41,2.11Z" style="fill:#FF725E;"></path></g><path d="M500.67,165.46c4.36,.44,22.33,3.03,33.88,3.41,11.55,.38,28.21-1.81,28.21-1.81,0,0,.11-19.03-.74-24.33s-3.43-9.98-11.92-14.21c-8.49-4.23-33.8-5.54-33.8-5.54-24.13,.43-39.5,8.64-49.34,16.91,0,0-3.45,3.43-5.9,7.14l39.6,18.43Z" style="fill:#FF725E;"></path><g><path d="M548.24,207.83c.23-.38,4.04-6.83,.92-13.03-3.11-6.2-19.45-15.71-19.45-15.71l-12.2,24.07,4.98,.33s-14.45,9.56-21.57,23.98l-8.36,14.66,14.34,10.14s30.18-32.28,33.39-35.64,7.94-8.81,7.94-8.81Z" style="fill:#ae7461;"></path><g><path d="M468.03,194.5c-10.69-3.07-18.23-12.95-17.76-24.07,.02-.37,.04-.74,.07-1.11,.92-10.46,11.51-23.42,11.51-23.42,0,0,6.31-7.23,15.04-3.13,8.73,4.1,20.82,21.31,20.82,21.31,0,0,18.89,7.53,35.76,17.33l-12.71,22.64s-12.41-.67-33.67-4.65c-9.32-1.75-14.83-3.69-19.06-4.9Z" style="fill:#263238;"></path><path d="M468.03,194.5s.33,.07,.95,.24c.64,.19,1.56,.45,2.75,.79,2.4,.7,5.94,1.73,10.51,2.74,4.58,.99,10.2,1.96,16.67,2.98,6.47,.98,13.81,2.01,21.86,2.58l-.2,.11c3.86-6.89,8.15-14.55,12.69-22.65l.09,.34c-8.93-5.16-19-10.11-29.65-14.75-2.07-.9-4.14-1.78-6.08-2.56l-.07-.03-.05-.06c-2.15-3-4.41-5.88-6.72-8.63-2.32-2.74-4.71-5.36-7.26-7.71-2.55-2.32-5.26-4.48-8.38-5.55-1.57-.49-3.2-.67-4.79-.51-1.59,.16-3.12,.65-4.51,1.38-1.39,.72-2.66,1.66-3.71,2.74-.96,1.16-1.87,2.42-2.73,3.64-1.72,2.46-3.26,4.94-4.59,7.42-2.64,4.94-4.49,10-4.34,14.78,.04,2.37,.43,4.62,1.06,6.66,.66,2.04,1.56,3.85,2.54,5.46,2.04,3.17,4.45,5.44,6.61,6.97,2.17,1.54,4.08,2.34,5.36,2.9,.64,.23,1.14,.4,1.5,.53,.34,.12,.51,.2,.51,.2,0,0-.18-.04-.52-.15-.36-.11-.86-.28-1.52-.48-1.29-.53-3.23-1.31-5.43-2.83-2.2-1.51-4.65-3.78-6.74-6.98-1-1.62-1.93-3.45-2.61-5.51-.65-2.07-1.06-4.34-1.11-6.75-.17-4.87,1.69-10.01,4.33-14.98,1.33-2.5,2.88-4.99,4.6-7.48,.87-1.24,1.75-2.47,2.76-3.7,1.1-1.14,2.4-2.09,3.83-2.85,1.43-.75,3.02-1.27,4.68-1.44,1.66-.17,3.36,.02,4.99,.52,3.25,1.1,6,3.31,8.57,5.64,2.58,2.37,4.97,5,7.31,7.75,2.33,2.76,4.59,5.64,6.76,8.67l-.12-.09c1.95,.79,4.02,1.66,6.1,2.57,10.66,4.64,20.74,9.61,29.69,14.79l.21,.12-.12,.21c-4.56,8.09-8.86,15.74-12.74,22.62l-.07,.12h-.14c-8.09-.6-15.42-1.66-21.89-2.67-6.47-1.05-12.08-2.05-16.67-3.08-4.58-1.05-8.1-2.12-10.5-2.86-1.18-.37-2.09-.66-2.73-.86-.3-.09-.53-.17-.7-.22-.16-.05-.23-.08-.23-.09Z" style="fill:#455a64;"></path></g><g><polygon points="502.96 259.41 515.08 243.7 499.14 230.61 488.11 250 489.15 258.21 497.76 262.14 502.96 259.41" style="fill:#e0e0e0;"></polygon><g><path d="M504.3,287.98s-6.44-3.02-10.51-7.28c-4.08-4.26-9.21-11.55-11.12-14.2-1.91-2.65-9.61-7.96-7.95-10.83,1.66-2.87,14.48-7.59,14.48-7.59,0,0-1.67,3.33,.83,5.37,2.5,2.04,8.32,4.93,8.32,4.93,0,0,4.83-1.37,6.33-.26,1.5,1.11-2.45,4.65-2.45,4.65,0,0-.79,7.75,.63,10.83,1.43,3.08,.88,3.88,3.54,6.35,2.66,2.47,3.08,4.62,3.08,4.62,0,0-.72,3.33-2.06,3.56-1.34,.24-3.13-.14-3.13-.14Z" style="fill:#FF725E;"></path><path d="M507.5,288.11c-1.36,.4-3.23-.08-3.23-.08,0,0-6.44-3.02-10.51-7.28-4.08-4.26-9.21-11.55-11.12-14.2-1.91-2.65-9.61-7.96-7.95-10.83,.45-.79,1.09-1.44,1.92-1.95,0,0,5.37,8.13,8.83,11.08,3.46,2.95,8.6,11.74,12.47,15.11,3.87,3.37,9.03,6.25,9.03,6.25l1.86,.43c-.34,.69-.49,1.25-1.3,1.47Z" style="fill:#fff;"></path><path d="M502.6,272.17c-.06-.06-.65,.53-1.58,.85-.93,.34-1.75,.24-1.76,.33-.03,.07,.85,.31,1.86-.05,1.02-.35,1.55-1.09,1.48-1.13Z" style="fill:#fff;"></path><path d="M502.12,268.25c-.06-.07-.81,.59-1.96,.87-1.15,.3-2.12,.09-2.14,.18-.04,.07,.98,.44,2.21,.11,1.24-.31,1.95-1.12,1.89-1.16Z" style="fill:#fff;"></path><path d="M502.2,264.98c-.03-.08-.8,.15-1.78,.24-.98,.1-1.78,.03-1.79,.12-.02,.08,.8,.29,1.82,.18,1.02-.1,1.78-.47,1.75-.54Z" style="fill:#fff;"></path><path d="M484.37,258.31s.25,.41,.75,.98c.5,.58,1.22,1.35,2.06,2.16,.84,.81,1.64,1.5,2.23,1.97,.6,.48,.99,.74,1.01,.71,.05-.07-1.37-1.29-3.04-2.9-1.67-1.6-2.95-2.98-3.01-2.93Z" style="fill:#fff;"></path></g></g></g><g><path d="M543.76,163.74s19.15,37.09,24.78,41.67c5.64,4.58,42.21-6.4,42.21-6.4l-.31-15.76-33.47,2.38s-12.31-27.38-13.56-32.33c-1.25-4.96-.49-15.8-5.04-17.33s-21.07,3.79-18.78,18.33l4.17,9.45Z" style="fill:#e0e0e0;"></path><path d="M639.59,185.58s1.27,.33,.68-2.24c-.59-2.58-2.92-5.37-2.92-5.37,0,0-4.66-3.27-6.1-3.02-1.43,.25-11.93,7.24-11.93,7.24l-8.86,1.92,.27,14.07,8.64-3.19s2.17,1.26,3.11,.74,5.45-3.22,7.24-1.94l.48,2.29s4.21-.56,4.74-1.84c.52-1.27,.68-2.15,.68-2.15,0,0,2.23,.39,2.57-.78s-.22-2.98-.22-2.98c0,0,1.88-1.14,1.62-2.77Z" style="fill:#ae7461;"></path></g></g></g></g><g id="freepik--character-1--inject-94"><g><g><path d="M179.42,223.05s5,16.07,3.86,21.03c-1.14,4.95-27.82,64.27-27.82,64.27l-14.86-7.49s5.97-30.06,10.98-41.77,8.61-16.54,8.61-16.54l-4.89-10.44,24.12-9.07Z" style="fill:#ffbf9d;"></path><path d="M130.08,177.7c.22,.29,7.1,14.41,10.69,24.21,3.59,9.8,14.53,30.21,14.53,30.21l24.12-9.07s-5.38-27.43-5.36-27.89-9.31-19.56-8.88-19.08c.43,.48-35.11,1.62-35.11,1.62Z" style="fill:#263238;"></path><g><polygon points="155.69 310.72 162.6 291.95 144.07 285 138.56 306.15 142.04 313.73 151.51 314.92 155.69 310.72" style="fill:#e0e0e0;"></polygon><g><path d="M165.61,337.8s-7.1-.96-12.31-3.82c-5.21-2.87-12.35-8.33-14.99-10.3-2.64-1.97-11.65-4.76-10.92-8.02s11.64-11.68,11.64-11.68c0,0-.6,3.71,2.42,4.91,3.03,1.21,9.5,2.23,9.5,2.23,0,0,4.24-2.77,6.01-2.16,1.78,.61-.95,5.21-.95,5.21,0,0,1.58,7.69,3.88,10.23,2.3,2.54,2.02,3.46,5.32,5.04,3.3,1.57,4.36,3.51,4.36,3.51,0,0,.31,3.42-.91,4.05-1.22,.63-3.05,.81-3.05,.81Z" style="fill:#FF725E;"></path><path d="M168.73,336.96c-1.19,.8-3.13,.89-3.13,.89,0,0-7.1-.96-12.31-3.82-5.21-2.87-12.35-8.33-14.99-10.3-2.64-1.97-11.65-4.76-10.92-8.02,.19-.9,.61-1.72,1.25-2.46,0,0,7.62,6.2,11.84,7.99,4.22,1.79,11.82,8.7,16.56,10.77,4.74,2.07,10.57,3.29,10.57,3.29l1.92-.15c-.12,.77-.1,1.35-.8,1.81Z" style="fill:#fff;"></path><path d="M159.2,323.11c-.08-.04-.47,.7-1.27,1.29-.79,.6-1.61,.76-1.6,.85,0,.08,.91,.05,1.78-.61,.87-.65,1.16-1.52,1.09-1.53Z" style="fill:#fff;"></path><path d="M157.55,319.48c-.08-.05-.6,.81-1.62,1.43-1.01,.64-2.02,.73-2,.82-.02,.08,1.07,.13,2.16-.56,1.1-.67,1.54-1.67,1.46-1.69Z" style="fill:#fff;"></path><path d="M156.64,316.3c-.05-.07-.73,.38-1.64,.77-.91,.39-1.7,.56-1.69,.65,0,.08,.86,.04,1.81-.37,.95-.4,1.57-.99,1.52-1.05Z" style="fill:#fff;"></path><path d="M137.47,315.28s.36,.32,1.02,.72c.65,.41,1.58,.93,2.63,1.45,1.05,.52,2.03,.95,2.75,1.22,.72,.28,1.17,.42,1.19,.38,.03-.08-1.71-.83-3.8-1.88-2.09-1.04-3.74-1.98-3.78-1.9Z" style="fill:#fff;"></path></g></g></g><g><g><g><circle cx="272.23" cy="305.68" r="60.84" transform="translate(-136.41 282.02) rotate(-45)" style="fill:#e0e0e0;"></circle><path d="M332.98,308.96s0-.34,0-.99c0-.65,.07-1.62,.02-2.89-.02-2.54-.25-6.3-1.15-11.05-.95-4.72-2.65-10.45-5.86-16.52-3.2-6.05-7.9-12.45-14.48-18.04-3.27-2.8-7.03-5.36-11.2-7.53-4.17-2.17-8.76-3.98-13.69-5.14-4.92-1.18-10.17-1.83-15.56-1.7-2.7,.01-5.43,.31-8.17,.7-2.74,.43-5.49,1.07-8.22,1.87-10.89,3.29-21.42,9.97-29.27,19.59-7.88,9.55-12.97,22-13.66,35.15-.74,13.15,2.98,26.08,9.79,36.43,6.77,10.41,16.52,18.18,26.99,22.63,2.63,1.1,5.29,2.02,7.97,2.75,2.69,.68,5.37,1.27,8.05,1.57,5.35,.71,10.64,.63,15.66-.01,5.03-.63,9.79-1.93,14.17-3.64,4.38-1.71,8.39-3.85,11.95-6.29,7.14-4.85,12.51-10.71,16.34-16.38,3.84-5.69,6.15-11.2,7.6-15.79,1.41-4.62,2.04-8.33,2.34-10.86,.18-1.26,.22-2.23,.29-2.88,.06-.65,.1-.98,.1-.98,0,0-.03,1.34-.29,3.87-.26,2.53-.86,6.26-2.25,10.91-1.43,4.62-3.72,10.16-7.55,15.89-3.82,5.71-9.2,11.62-16.37,16.52-3.57,2.46-7.6,4.62-12.01,6.36-4.41,1.73-9.19,3.05-14.26,3.69-5.06,.66-10.38,.75-15.77,.04-2.7-.3-5.41-.89-8.11-1.58-2.7-.73-5.38-1.66-8.03-2.76-10.56-4.47-20.4-12.29-27.23-22.79-6.87-10.43-10.63-23.48-9.88-36.74,.69-13.26,5.83-25.82,13.78-35.45,7.92-9.7,18.55-16.42,29.52-19.72,2.75-.81,5.52-1.44,8.28-1.88,2.77-.39,5.52-.68,8.24-.69,5.44-.12,10.72,.53,15.67,1.74,4.97,1.18,9.58,3.01,13.77,5.21,4.2,2.2,7.97,4.78,11.25,7.61,6.6,5.65,11.31,12.1,14.5,18.19,3.19,6.11,4.88,11.87,5.8,16.61,.88,4.77,1.07,8.54,1.06,11.09-.01,2.55-.13,3.88-.13,3.88Z" style="fill:#263238;"></path></g><circle cx="272.23" cy="305.68" r="56.59" transform="translate(-117.2 179.61) rotate(-30.37)" style="fill:#455a64;"></circle><g><path d="M213.59,321.9c4.88,17.65,17.55,32.23,34.28,39.54l22.27-53.01-56.55,13.47Z" style="fill: none;"></path><path d="M269.4,302.32l.54,1.13c6.62-7.93,28.98-34.66,38.94-46.34-9.34-7.06-20.81-11.51-33.38-12.19-20.03-1.08-38.31,7.65-50.18,22l11.67-10.29,32.41,45.68Z" style="fill: none;"></path><path d="M274.5,308.31l31.92,47.68c15.15-10.31,25.5-27.32,26.56-47.03,.13-2.34,.1-4.66-.03-6.95l-58.45,6.31Z" style="fill: none;"></path><path d="M270.76,308.72l-.32-.36-.3,.07-22.27,53.01c6.49,2.84,13.59,4.59,21.08,4.99,13.84,.75,26.84-3.2,37.47-10.44l-31.92-47.68-3.73,.4Z" style="opacity: .1;"></path><path d="M271.47,306.63l2.22,.48,.81,1.21,58.45-6.31c-1.08-18.2-10.22-34.42-24.06-44.89-9.96,11.68-32.32,38.41-38.94,46.34l1.52,3.18Z" style="opacity: .1;"></path><polygon points="271.47 306.63 272.1 307.96 270.44 308.36 270.76 308.72 274.5 308.31 273.69 307.11 271.47 306.63" style="opacity: .1;"></polygon><polygon points="271.47 306.63 272.1 307.96 270.44 308.36 270.76 308.72 274.5 308.31 273.69 307.11 271.47 306.63" style="opacity: .1;"></polygon><path d="M270.26,308.15l-2.19-2.44s.68-.82,1.88-2.26l-.54-1.13-32.41-45.68-11.67,10.29c-8.02,9.69-13.12,21.94-13.85,35.47-.36,6.76,.41,13.32,2.12,19.5l56.55-13.47,.12-.27Z" style="opacity: .1;"></path><polygon points="270.14 308.43 270.44 308.36 270.26 308.15 270.14 308.43" style="opacity: .1;"></polygon><polygon points="270.14 308.43 270.44 308.36 270.26 308.15 270.14 308.43" style="opacity: .1;"></polygon><path d="M271.47,306.63l-1.52-3.18c-1.2,1.44-1.88,2.26-1.88,2.26l2.19,2.44,.69-1.64,.52,.11Z" style="opacity: .1;"></path><path d="M271.47,306.63l-1.52-3.18c-1.2,1.44-1.88,2.26-1.88,2.26l2.19,2.44,.69-1.64,.52,.11Z" style="opacity: .1;"></path><polygon points="271.47 306.63 270.94 306.52 270.26 308.15 270.44 308.36 272.1 307.96 271.47 306.63" style="opacity: .1;"></polygon><polygon points="271.47 306.63 270.94 306.52 270.26 308.15 270.44 308.36 272.1 307.96 271.47 306.63" style="opacity: .1;"></polygon><polygon points="271.47 306.63 270.94 306.52 270.26 308.15 270.44 308.36 272.1 307.96 271.47 306.63" style="opacity: .1;"></polygon></g></g><g><g><circle cx="90.24" cy="296.85" r="60.84" transform="translate(-183.47 150.76) rotate(-45)" style="fill:#e0e0e0;"></circle><path d="M150.99,300.13s0-.34,0-.99c0-.65,.07-1.62,.02-2.89-.02-2.54-.25-6.3-1.15-11.05-.95-4.72-2.65-10.45-5.86-16.52-3.2-6.05-7.9-12.45-14.48-18.04-3.27-2.8-7.03-5.36-11.2-7.53-4.17-2.17-8.76-3.98-13.69-5.14-4.92-1.18-10.17-1.83-15.56-1.7-2.7,.01-5.43,.31-8.17,.7-2.74,.43-5.49,1.07-8.22,1.87-10.89,3.29-21.42,9.97-29.27,19.59-7.88,9.55-12.97,22-13.66,35.15-.74,13.15,2.98,26.08,9.79,36.43,6.77,10.41,16.52,18.18,26.99,22.63,2.63,1.1,5.29,2.02,7.97,2.75,2.69,.68,5.37,1.27,8.05,1.57,5.35,.71,10.64,.63,15.66-.01,5.03-.63,9.79-1.93,14.17-3.64,4.38-1.71,8.39-3.85,11.95-6.29,7.14-4.85,12.51-10.71,16.34-16.38,3.84-5.69,6.15-11.2,7.6-15.79,1.41-4.62,2.04-8.33,2.34-10.86,.18-1.26,.22-2.23,.29-2.88,.06-.65,.1-.98,.1-.98,0,0-.03,1.34-.29,3.87-.26,2.53-.86,6.26-2.25,10.91-1.43,4.62-3.72,10.16-7.55,15.89-3.82,5.71-9.2,11.62-16.37,16.52-3.57,2.46-7.6,4.62-12.01,6.36-4.4,1.73-9.19,3.05-14.26,3.69-5.06,.66-10.38,.75-15.77,.04-2.7-.3-5.41-.89-8.11-1.58-2.7-.73-5.38-1.66-8.03-2.76-10.56-4.47-20.4-12.29-27.23-22.79-6.87-10.43-10.63-23.48-9.88-36.74,.69-13.26,5.83-25.82,13.78-35.45,7.92-9.7,18.55-16.42,29.52-19.72,2.75-.81,5.52-1.44,8.28-1.88,2.77-.39,5.52-.68,8.24-.69,5.44-.12,10.72,.53,15.67,1.74,4.97,1.18,9.58,3.01,13.77,5.21,4.2,2.2,7.97,4.78,11.25,7.61,6.6,5.65,11.31,12.1,14.5,18.19,3.19,6.11,4.88,11.87,5.8,16.61,.88,4.77,1.07,8.54,1.06,11.09-.01,2.55-.13,3.88-.13,3.88Z" style="fill:#263238;"></path></g><circle cx="90.24" cy="296.85" r="56.59" transform="translate(-212.94 230.92) rotate(-60.82)" style="fill:#455a64;"></circle><g><path d="M31.61,313.08c4.88,17.65,17.55,32.23,34.28,39.54l22.27-53.01-56.55,13.47Z" style="fill: none;"></path><path d="M87.42,293.49l.54,1.13c6.62-7.93,28.98-34.66,38.94-46.34-9.34-7.06-20.81-11.51-33.38-12.19-20.03-1.08-38.31,7.65-50.18,22l11.67-10.29,32.41,45.68Z" style="fill: none;"></path><path d="M92.51,299.49l31.92,47.68c15.15-10.31,25.5-27.32,26.56-47.03,.13-2.34,.1-4.66-.03-6.95l-58.45,6.31Z" style="fill: none;"></path><path d="M88.77,299.89l-.32-.36-.3,.07-22.27,53.01c6.49,2.84,13.59,4.59,21.08,4.99,13.84,.75,26.84-3.2,37.47-10.44l-31.92-47.68-3.73,.4Z" style="opacity: .1;"></path><path d="M89.48,297.8l2.22,.48,.81,1.21,58.45-6.31c-1.08-18.2-10.22-34.42-24.06-44.89-9.96,11.68-32.32,38.41-38.94,46.34l1.52,3.18Z" style="opacity: .1;"></path><polygon points="89.48 297.8 90.12 299.13 88.45 299.53 88.77 299.89 92.51 299.49 91.7 298.28 89.48 297.8" style="opacity: .1;"></polygon><polygon points="89.48 297.8 90.12 299.13 88.45 299.53 88.77 299.89 92.51 299.49 91.7 298.28 89.48 297.8" style="opacity: .1;"></polygon><path d="M88.27,299.33l-2.19-2.44s.68-.82,1.88-2.26l-.54-1.13-32.41-45.68-11.67,10.29c-8.02,9.69-13.12,21.94-13.85,35.47-.37,6.76,.41,13.32,2.12,19.5l56.55-13.47,.12-.27Z" style="opacity: .1;"></path><polygon points="88.15 299.6 88.45 299.53 88.27 299.33 88.15 299.6" style="opacity: .1;"></polygon><polygon points="88.15 299.6 88.45 299.53 88.27 299.33 88.15 299.6" style="opacity: .1;"></polygon><path d="M89.48,297.8l-1.52-3.18c-1.2,1.44-1.88,2.26-1.88,2.26l2.19,2.44,.69-1.64,.52,.11Z" style="opacity: .1;"></path><path d="M89.48,297.8l-1.52-3.18c-1.2,1.44-1.88,2.26-1.88,2.26l2.19,2.44,.69-1.64,.52,.11Z" style="opacity: .1;"></path><polygon points="89.48 297.8 88.96 297.69 88.27 299.33 88.45 299.53 90.12 299.13 89.48 297.8" style="opacity: .1;"></polygon><polygon points="89.48 297.8 88.96 297.69 88.27 299.33 88.45 299.53 90.12 299.13 89.48 297.8" style="opacity: .1;"></polygon><polygon points="89.48 297.8 88.96 297.69 88.27 299.33 88.45 299.53 90.12 299.13 89.48 297.8" style="opacity: .1;"></polygon></g></g><g><polygon points="132.24 218.32 125.23 185.47 134.02 185.94 141.86 218.84 132.24 218.32" style="fill:#e0e0e0;"></polygon><path d="M132.24,218.32s.24-.01,.68,0c.48,.02,1.11,.04,1.9,.06,1.69,.07,4.07,.17,7.06,.3l-.17,.2c-1.83-7.57-4.65-19.26-7.81-32.35l-.12-.52,.24,.2c-3.03-.17-5.97-.33-8.79-.48l.26-.31c1.95,9.36,3.66,17.53,4.88,23.43,.59,2.91,1.06,5.25,1.4,6.92,.15,.78,.27,1.41,.36,1.88,.08,.43,.12,.66,.11,.67s-.07-.2-.17-.61c-.11-.46-.25-1.06-.42-1.82-.37-1.65-.89-3.97-1.53-6.85-1.29-5.92-3.08-14.13-5.13-23.53l-.07-.32,.33,.02c2.82,.15,5.77,.31,8.79,.47h.19l.05,.2,.12,.52c3.08,13.12,5.84,24.82,7.62,32.4l.05,.22h-.22c-3.02-.21-5.42-.37-7.13-.48-.78-.06-1.4-.11-1.87-.14-.42-.04-.63-.06-.62-.07Z" style="fill:#263238;"></path></g><path d="M253.43,217.45c-.27,2.15,.88,4.23,2.85,5.14,3.88,1.79,10.1,4.53,12.42,4.83,2.61,.33,12.39,.76,17.12,.96,1.44,.06,2.66-1.05,2.73-2.48h0c.08-1.45-1.03-2.69-2.48-2.77l-16.23-.88-10.48-4.54,.71-6.64-6.32,.28-.32,6.09Z" style="fill:#263238;"></path><g><path d="M147.58,336.44l16.09-24.54c1.16-1.82,.54-4.25-1.35-5.29h0c-1.74-.96-3.93-.39-4.98,1.3l-15.79,24.8,6.03,3.72Z" style="fill:#263238;"></path><rect x="134.6" y="329.77" width="22.87" height="6.63" transform="translate(83.44 691.34) rotate(-146.42)" style="fill:#263238;"></rect></g><g><path d="M310.13,187.86c-3.7,4.9-7.45,9.77-11.27,14.57-1.16,1.45-2.32,2.89-3.51,4.31-.23,.27-.46,.54-.69,.81-.11,.12-.21,.25-.32,.37,.34-.38,.11-.12-.07,.08-.31,.34-.64,.67-.96,1-.17,.18-.48,.26-.07,.1,.13-.05,.56-.29,.61-.27-.15-.05-.47,.05-.62,.06-.36,.03-.73,.05-1.09,.06-.71,.04,.2,0-.17,0-.31,.01-.62,.03-.92,.04-7.15,.31-14.31,.49-21.46,.69-5.57,.15-11.14,.28-16.7,.44-.87,.03-1.65,.21-2.3,.87-.97,.98-1.88,2.05-2.82,3.06-2.42,2.63-4.84,5.25-7.25,7.88l-.48,.53c-.9,.98-1.2,2.43-.34,3.55,.74,.96,2.41,1.3,3.32,.31,3.6-3.92,7.21-7.83,10.82-11.75,0,0-.11,.04,0,0,9.75-.24,17.76,.08,27.51-.23,2.71-.09,5.42-.17,8.13-.28,1.64-.07,3.34-.01,4.96-.26,1.6-.24,2.71-1.79,3.75-2.98,1.95-2.24,3.81-4.59,5.66-6.93,3.42-4.33,6.79-8.71,10.12-13.13,1.92-2.55-1.9-5.45-3.81-2.92h0Z" style="fill:#e0e0e0;"></path><path d="M310.13,187.86s.24-.55,1.22-.93c.49-.15,1.19-.15,1.86,.24,.65,.36,1.32,1.12,1.35,2.15,0,.51-.19,1.03-.51,1.48-.33,.43-.67,.88-1.03,1.35-.72,.94-1.5,1.97-2.34,3.07-1.69,2.21-3.61,4.72-5.75,7.51-1.05,1.41-2.24,2.82-3.45,4.33-1.22,1.49-2.47,3.07-3.82,4.66-.68,.78-1.41,1.64-2.49,2.09-.54,.23-1.12,.25-1.66,.32-.55,.05-1.11,.08-1.67,.09-2.23,.04-4.53,.15-6.89,.23-4.73,.2-9.73,.3-14.94,.29-5.21,0-10.63-.04-16.21,.1h.02l-.16-.48h.02l.03-.02c.13-.05,.28,.03,.32,.16,.03,.09,0,.19-.05,.26-1.81,1.96-3.65,3.97-5.52,6.01-.94,1.02-1.88,2.04-2.83,3.08l-1.43,1.55-.72,.78c-.23,.24-.48,.57-.86,.76-.84,.44-1.84,.27-2.58-.21-.76-.5-1.19-1.41-1.15-2.3,.03-.89,.48-1.71,1.07-2.29,.54-.59,1.08-1.17,1.62-1.76,2.15-2.33,4.26-4.63,6.34-6.89,.52-.57,1.04-1.13,1.56-1.69l.77-.84c.25-.28,.59-.57,.96-.74,.75-.37,1.58-.34,2.3-.36,.75-.02,1.49-.04,2.22-.06,2.95-.08,5.84-.15,8.65-.22,5.63-.16,10.98-.32,15.98-.46,2.5-.08,4.91-.15,7.22-.22,1.16-.03,2.29-.07,3.4-.1l.83-.03h.21c-.2-.23,.34,.26,.06,.37h-.25c-.02-.75,.01-.2,0-.37h.18l.2-.02,.8-.05c.27,.02,.44-.12,.86-.06l-.12,.35s.06,.01,.08,0h0s0,0,0,0l-.04,.02-.09,.04-.19,.09c-.12,.06-.28,.13-.39,.17,0,0-.02,0,0,0,0,0,0,0,.05-.04,.17-.08-.17-.45-.14-.31-.04,0-.04,0-.04,0h0s0,0,0,0h0l.04-.02,.07-.04c.05-.04,.07-.05,.13-.11l.28-.29c.19-.19,.37-.38,.55-.57l.26-.28,.06-.07,.02-.02h0v-.02c-.11,.07,.22-.23,.29,.2-.06,.11-.02,.04-.04,.06h0l-.03,.05-.13,.14c-.06,.07-.18,.08-.25,.02-.07-.06-.08-.18-.02-.25,2.57-3.03,4.83-5.82,6.74-8.3,1.93-2.47,3.59-4.59,4.94-6.32,1.35-1.71,2.4-3.04,3.12-3.96,.35-.43,.62-.77,.82-1.02,.19-.23,.29-.34,.29-.34,0,0-.08,.13-.25,.37-.19,.25-.45,.6-.78,1.05-.71,.93-1.73,2.28-3.05,4.02-1.34,1.75-2.97,3.89-4.88,6.38-1.89,2.5-4.13,5.31-6.69,8.36l-.27-.23,.13-.15,.03-.04h0s.03-.06-.03,.04c.07,.42,.4,.12,.28,.2h.01s.06,.05-.06-.07c.13,.12,.03,.03,.06,.06h-.01l-.06,.09-.26,.29c-.18,.19-.36,.38-.55,.57l-.28,.29s-.12,.12-.18,.16l-.1,.06-.05,.03h-.02l-.02,.02h-.02s0,0-.04,.01c.02,.14-.31-.23-.14-.31,.04-.04,.04-.03,.05-.04l.04-.02c.15-.06,.25-.1,.38-.16l.19-.1,.1-.05,.06-.02h.04l.03-.02s.07,0,.1,0l-.12,.35c-.11-.03-.45,.08-.72,.08l-.81,.05h-.2l-.1,.02h-.07c-.01-.16,0,.37-.02-.36-.01-.03,0,0,0-.02h.17c.02,.06-.05-.16,.02,.15-.35-.2,.22,.52,0,.22h-.2l-.83,.05c-1.11,.04-2.24,.08-3.4,.12-2.32,.08-4.73,.16-7.23,.25-5,.16-10.35,.33-15.98,.51-2.82,.08-5.7,.16-8.65,.24l-2.22,.06c-.75,.02-1.48,0-2.1,.32-.61,.27-1.05,.94-1.59,1.47-.51,.56-1.03,1.12-1.55,1.68-2.08,2.26-4.19,4.56-6.34,6.89-.54,.58-1.07,1.17-1.62,1.76-.54,.54-.9,1.22-.93,1.96-.03,.72,.32,1.45,.92,1.84,.6,.4,1.43,.52,2.05,.18,.27-.13,.47-.38,.72-.65l.72-.78,1.43-1.55c.95-1.03,1.89-2.06,2.83-3.08,1.87-2.04,3.72-4.04,5.53-6l.27,.42h-.04v.02h-.01l-.16-.48h0l.05-.02s.05-.01,.08-.01c5.59-.14,11.02-.08,16.22-.07,5.21,.02,10.19-.06,14.92-.25,2.36-.07,4.67-.17,6.9-.2,.56-.01,1.1-.04,1.65-.09,.54-.06,1.08-.08,1.54-.28,.95-.39,1.66-1.19,2.34-1.97,1.36-1.59,2.6-3.16,3.83-4.64,1.21-1.49,2.41-2.89,3.47-4.3,2.16-2.77,4.1-5.27,5.8-7.46,.85-1.09,1.64-2.11,2.37-3.04l1.04-1.34c.31-.42,.47-.9,.49-1.36,0-.95-.62-1.67-1.23-2.03-.63-.38-1.29-.39-1.76-.27-.95,.34-1.21,.9-1.25,.84Z" style="fill:#263238;"></path></g><path d="M166,290.83c-2.64-.12-5.33,.04-7.97,.07-5.91,.07-11.82,.16-17.74,.24-13.2,.18-26.4,.38-39.6,.57-3,.04-6,.09-8.99,.13-.17,0-.32,.11-.36,.28l-2.05,7.16c-.04,.15,.03,.35,.17,.42,4.84,2.49,9.71,4.93,14.58,7.36,9.69,4.82,19.41,9.57,29.25,14.08,4.35,1.99,8.72,3.94,13.16,5.73,2.91,1.17,5.91,2.46,9,3.07,3.43,.67,5.86-1.66,7.64-4.36,2.76-4.18,4.37-9.17,5.72-13.96,.54-1.9,1.02-3.83,1.45-5.76,.15-.69,.52-1.6,.44-2.31-.05-.46-.35-1.01-.5-1.44l-1.06-3.05c-.77-2.22-1.55-4.44-2.32-6.67-.15-.43-.3-.86-.45-1.3-.16-.45-.88-.26-.72,.2,1.26,3.62,2.52,7.23,3.78,10.85,.18,.51,.44,1.04,.55,1.57-.06-.3-.04,.11-.09,.36-.28,1.37-.59,2.73-.93,4.09-1.18,4.75-2.6,9.53-4.76,13.94-1.44,2.95-3.97,7.66-7.91,7.21-2.74-.32-5.48-1.54-8.02-2.53-4.27-1.67-8.46-3.52-12.64-5.41-9.67-4.38-19.22-9.02-28.72-13.73-3.73-1.85-7.45-3.72-11.17-5.6-1.22-.62-2.45-1.24-3.67-1.86-.59-.3-1.3-.84-1.95-1-.09-.02-.18-.09-.26-.14,.06,.14,.11,.28,.17,.42l2.05-7.16c-.12,.09-.24,.18-.36,.28,8.25-.12,16.51-.24,24.76-.36,13.29-.19,26.58-.39,39.86-.56,3.21-.04,6.47-.24,9.67-.1,.48,.02,.48-.73,0-.75Z" style="fill:#e0e0e0;"></path><path d="M246.76,224.42l-5.92-4.34s-6.71,3.99-11.96,5.63c-5.24,1.64-84.16-.98-84.16-.98l-1.54-8.99-13.84,.19s5.21,20.78,4.09,24.24-38.2,43.44-41.92,47.07c-3.94,3.84-8.52,5.87-8.52,5.87l-.33,6.08,60.7,12.88,1.68-8.65s-42.16-4.91-45.83-6.86c-2.72-1.45-5.24-2.86-2.65-7.41,2.14-3.76,26.75-29.72,35.16-38.54,1.41-1.48,3.85-1.22,4.91,.54,3.37,5.62,9.87,16.89,12.68,24.68,3.87,10.75,5.27,19.5,5.27,19.5l9.31-2.78s-7.33-28.73-10.38-37.81c-3.05-9.08-7.78-25.5-7.78-25.5l81.94,4.93s4.04,1.09-.75,6.01c-4.77,4.9-57.96,53.58-57.96,53.58l6.77,6.93,63.78-53.25,27.33,58.99,5.38-1.85-25.47-80.17Z" style="fill:#263238;"></path><path d="M101.82,174.01c.83-.32,13.94,9.26,17.75,10.6,4.69,1.65,30.74,1.66,30.74,1.66,0,0,1.35-2.67-1.3-4.46-2.65-1.79-14.05-4.38-24.34-5.59-10.29-1.21-24.61-6.35-22.86-2.21Z" style="fill:#455a64;"></path><g><circle cx="158.85" cy="310.33" r="20" transform="translate(-166.66 185.49) rotate(-41.91)" style="fill:#e0e0e0;"></circle><path d="M178.82,311.41s-.02-.11-.03-.33c0-.24-.01-.56-.02-.95,0-.42-.01-.93-.1-1.54-.07-.61-.12-1.31-.32-2.08-.28-1.56-.9-3.41-1.94-5.39-1.05-1.98-2.59-4.06-4.75-5.88-2.15-1.8-4.9-3.38-8.13-4.13-3.21-.73-6.87-.82-10.42,.31-1.78,.51-3.52,1.34-5.13,2.42-.83,.51-1.57,1.16-2.34,1.78-.7,.7-1.44,1.38-2.05,2.18-2.6,3.1-4.19,7.17-4.46,11.45-.09,2.14,.14,4.26,.68,6.28,.51,2.03,1.44,3.89,2.52,5.59,.53,.86,1.18,1.62,1.81,2.39,.7,.7,1.36,1.43,2.13,2.02,1.49,1.24,3.13,2.26,4.85,2.96,3.41,1.51,7.06,1.81,10.32,1.43,3.29-.4,6.19-1.67,8.53-3.23,2.34-1.57,4.1-3.48,5.35-5.33,1.24-1.86,2.07-3.64,2.51-5.15,.27-.74,.41-1.44,.54-2.03,.15-.59,.22-1.1,.26-1.52,.05-.39,.09-.7,.12-.94,.03-.21,.05-.32,.06-.32s0,.11,0,.32l-.07,.95c-.02,.42-.08,.94-.21,1.54-.12,.6-.23,1.3-.5,2.06-.42,1.54-1.22,3.35-2.46,5.26-1.25,1.89-3.02,3.85-5.39,5.47-2.36,1.61-5.32,2.93-8.68,3.35-3.34,.41-7.07,.12-10.57-1.42-1.76-.71-3.45-1.75-4.97-3.02-.79-.61-1.48-1.35-2.19-2.07-.64-.79-1.32-1.56-1.86-2.45-1.12-1.74-2.07-3.65-2.6-5.73-.55-2.07-.79-4.25-.7-6.44,.15-2.19,.62-4.33,1.39-6.33,.75-2.01,1.9-3.81,3.2-5.41,.63-.82,1.39-1.52,2.11-2.23,.79-.64,1.55-1.3,2.4-1.82,1.66-1.1,3.44-1.94,5.27-2.46,3.64-1.15,7.38-1.04,10.66-.27,3.3,.78,6.09,2.42,8.26,4.27,2.18,1.87,3.73,4.01,4.77,6.02,1.03,2.03,1.63,3.91,1.88,5.49,.18,.78,.22,1.49,.27,2.1,.07,.61,.07,1.13,.05,1.55-.01,.4-.02,.71-.03,.95,0,.21-.02,.32-.03,.32Z" style="fill:#263238;"></path></g><path d="M144.71,224.72c0,.14-1.82,.16-4.05,.04-2.23-.12-4.03-.33-4.02-.48,0-.14,1.82-.16,4.05-.04,2.23,.12,4.03,.33,4.02,.48Z" style="fill:#455a64;"></path><path d="M145.35,229.2c0,.14-1.82,.16-4.05,.04-2.23-.12-4.03-.33-4.02-.48,0-.14,1.82-.16,4.05-.04,2.23,.12,4.03,.33,4.02,.48Z" style="fill:#455a64;"></path><path d="M92.74,295.14c-.09,1.58-1.43,2.79-3.01,2.7s-2.79-1.43-2.7-3.01,1.43-2.79,3.01-2.7c1.58,.09,2.79,1.43,2.7,3.01Z" style="fill:#e0e0e0;"></path><path d="M274.48,306.86c-.11,2.11-1.91,3.72-4.02,3.61-2.11-.11-3.72-1.91-3.61-4.02,.11-2.11,1.91-3.72,4.02-3.61,2.11,.11,3.72,1.91,3.61,4.02Z" style="fill:#e0e0e0;"></path><path d="M168.85,311.1c-.3,5.48-4.98,9.68-10.45,9.38-5.48-.3-9.68-4.98-9.38-10.45,.3-5.48,4.98-9.68,10.45-9.38,5.48,.3,9.68,4.98,9.38,10.45Z" style="fill:#263238;"></path><g><path d="M162.4,280.32l-7.08,28.47c-.5,2.1,.89,4.19,3.02,4.55h0c1.96,.33,3.84-.93,4.27-2.87l6.71-28.62-6.92-1.52Z" style="fill:#455a64;"></path><rect x="153.54" y="279.66" width="22.87" height="6.63" transform="translate(74.97 -31.97) rotate(14.29)" style="fill:#455a64;"></rect></g></g><g><g><path d="M287.14,142.5l-16.34,11.72c6.66,1.44,14.17-1.15,19.67-4.42-.69-2.48-2.11-5.03-3.33-7.3Z" style="fill:#263238;"></path><g><g><g><path d="M250.56,128.42c2.72-2.95,5.47-5.9,8.66-8.34,3.19-2.44,6.86-4.36,10.82-4.99,.6-.09,4.82-.39,5.07,.17,.17,.4-3.48,1.18-3.7,1.55-2.1,3.58-5.59,6.18-9.36,7.92-3.77,1.73-7.44,2.81-11.49,3.69" style="fill:#263238;"></path><path d="M281.03,149.03c8.05-4.81,11.05-15,6.91-23.41l-.41-.84c-4.97-8.75-15.18-9.42-23.8-4.21l-28.78,16.77-8.05,16.81,8.14,8.62c2.49-1.36,11.6-6.26,11.61-6.24,0,0,5.62,8,14.34,3.84,4.21-2.01,12.54-6.86,20.04-11.34Z" style="fill:#ffbf9d;"></path><path d="M246.65,156.53s-3.01-5.3-2.23-12.93c0,0-5.18,5.93-.13,14.19l2.36-1.26Z" style="fill:#ff9a6c;"></path><path d="M271.74,150.04c-.64,.35-1.46,.09-1.84-.58-.37-.66-.16-1.48,.49-1.83,.64-.35,1.46-.09,1.84,.58,.37,.66,.16,1.48-.49,1.83Z" style="fill:#263238;"></path><path d="M276.29,149.07c-.24-.07,0-1.35-.67-2.68-.64-1.34-1.81-1.98-1.71-2.2,.04-.11,.41-.09,.93,.18,.51,.27,1.17,.83,1.57,1.66,.4,.83,.44,1.68,.33,2.23-.11,.56-.34,.85-.45,.81Z" style="fill:#263238;"></path><path d="M265.44,138.49c-.64,.35-1.46,.09-1.84-.58-.37-.66-.16-1.48,.49-1.83,.64-.35,1.46-.09,1.84,.58,.37,.66,.15,1.48-.49,1.83Z" style="fill:#263238;"></path><path d="M269.47,136.58c-.24-.07,0-1.35-.67-2.68-.64-1.34-1.81-1.98-1.72-2.2,.04-.11,.4-.1,.93,.18,.51,.27,1.17,.83,1.57,1.66,.4,.83,.44,1.68,.33,2.24-.11,.56-.34,.85-.45,.81Z" style="fill:#263238;"></path><path d="M261.67,146c.07-.04,.62,.71,1.46,1.97,.2,.32,.43,.61,.69,.55,.28-.04,.58-.36,.9-.72,.67-.73,1.36-1.49,2.09-2.28,3-3.21,5.53-5.72,5.66-5.6,.13,.12-2.2,2.83-5.19,6.04-.74,.78-1.45,1.53-2.13,2.25-.32,.32-.65,.76-1.25,.83-.3,.03-.61-.12-.77-.31-.17-.19-.27-.37-.37-.54-.74-1.31-1.16-2.15-1.08-2.19Z" style="fill:#263238;"></path><path d="M272.33,135.01c-.42,0-.65-1.31-1.33-2.71-.65-1.42-1.52-2.45-1.24-2.75,.14-.14,.56-.05,1.09,.31,.53,.35,1.13,1,1.53,1.84,.4,.85,.5,1.71,.44,2.32-.07,.62-.28,.99-.48,1Z" style="fill:#263238;"></path><path d="M281.32,146.61c-.44-.12-.68-1.36-1.33-2.66-.61-1.32-1.42-2.29-1.24-2.7,.1-.19,.48-.17,1.01,.16,.52,.33,1.16,1,1.59,1.9,.43,.9,.55,1.81,.48,2.42-.07,.61-.31,.92-.52,.88Z" style="fill:#263238;"></path><path d="M257.66,124.44c0-.18-1.17-6.82-7-3.71-5.83,3.11-1.51,8.32-1.33,8.24,.17-.08,8.34-4.53,8.34-4.53Z" style="fill:#ffbf9d;"></path><path d="M250.58,126.02s-.13-.06-.3-.19c-.17-.13-.37-.39-.42-.75-.1-.74,.6-1.78,1.63-2.37,.52-.3,1.09-.46,1.61-.49,.52-.05,.97,.07,1.19,.35,.24,.27,.17,.59,.04,.75-.12,.16-.26,.19-.25,.23,0,.02,.16,.07,.38-.1,.1-.09,.2-.23,.24-.42,.04-.2-.01-.44-.15-.64-.27-.43-.9-.62-1.47-.58-.58,.01-1.23,.18-1.81,.51-1.15,.66-1.93,1.85-1.73,2.82,.11,.47,.42,.74,.65,.85,.24,.1,.39,.07,.39,.04Z" style="fill:#ff9a6c;"></path><path d="M288.59,140.04c1.03,.66,2.54-3.82,2.33-6.7-.32-4.35-2.24-10.21-4.91-12.93-3.21-3.27-6.89-5.44-11.47-5.46-4.58-.02-9.09,1.48-13.05,3.79-1.21,.7-2.42,1.53-3.1,2.75-.84,1.51-.8,3.5-2.61,4.4-.66,.33-1.21,.87-1.44,1.57-.55,1.68,1.22,2.4,2.61,2.42,2.97,.04,5.76-1.3,8.42-2.61,1.89-.93,3.83-1.88,5.32-3.37,.81-.81,1.48-1.76,2.33-2.53,.86-.76,1.99-1.34,3.12-1.17,.18,.03,.44,.1,.73,.21,2.34,.86,4.02,2.92,4.41,5.38,.62,3.9,1.94,10.42,3.84,11.27,2.74,1.23,4.05,1.16,4.05,1.16l-.59,1.82Z" style="fill:#263238;"></path><path d="M258.63,142.35c.12,.19-1.21,.93-1.52,2.59-.32,1.66,.61,2.99,.43,3.1-.07,.06-.43-.17-.78-.76-.34-.58-.63-1.54-.43-2.55,.2-1.01,.8-1.74,1.32-2.08,.53-.36,.94-.39,.98-.3Z" style="fill:#263238;"></path></g><path d="M268.12,118.95s-11.8,5.63-19.49,12.12c-7.99,6.73-4.09,18.63-4.09,18.63,0,0,.1-13.04,9.07-18.39,8.13-4.85,16.29-9.11,16.29-9.11l-1.79-3.24Z" style="fill:#455a64;"></path></g><g style="opacity: .4;"><path d="M275.6,123.91c6.41,6.59,10.08,15.01,10.53,24.19-4.11,3.75-8.94,6.98-14.36,8.26-.49,.11-1.02,.21-1.47,0-.51-.24-.78-.79-1.01-1.31-1.24-2.81-2.51-5.67-2.86-8.72-.14-1.17-.17-2.44-.92-3.34-.64-.78-1.66-1.11-2.53-1.61-1.6-.92-2.76-2.48-3.53-4.17-.76-1.69-1.17-3.51-1.56-5.32,0,0-.32-2.19,3.06-5.67,3.38-3.47,14.64-2.33,14.64-2.33Z" style="fill:#e0e0e0;"></path></g><path d="M296.43,131.8c-.04-.63-.11-1.23-.19-1.83h0c-1.61-7.31-4.49-12.7-10.73-17.3-5.58-4.11-11.92-7.18-18.73-8.5-6.81-1.32-13.79-1.42-20.73-1.53-.7-.01-1.53,.04-1.91,.63-.37,.57-.12,1.31,.15,1.93,.21,.49,9.61,14.33,17.75,19.52l10.15-.03c6.47,5.67,7.53,12.48,8.13,13.9,1.29,3.04,3.74,13.32,6.13,12.97,2.25-.33,5.67-2.45,7.12-5.1,1.06-1.93,3.41-6.46,2.83-14.67Z" style="fill:#263238;"></path></g><path d="M269.7,116.51c-3.02-2.73-6.79-4.47-10.49-6.16-2.65-1.21-5.31-2.43-8.11-3.21l-7.13-3.19c.73,5.58,9.91,20.45,14.03,28.73,1.59-3.34,4.52-6.12,8.1-7.06,3.58-.94,7.74,.19,9.99,3.13-.6-4.66-2.9-9.08-6.39-12.23Z" style="fill:#263238;"></path><path d="M262.67,127.19l-12.84-24.48c2.01,.03,4.11,.11,6.3,.22,0,0,8.36,10.16,9.36,12.22s6.84,10.83,6.84,10.83c-1.74-.81-7.24-.38-9.65,1.21Z" style="fill:#FF725E;"></path></g><path d="M176.68,160.22c4.33,.86,22.12,5.2,33.68,6.7,11.56,1.5,28.48,.91,28.48,.91,0,0,1.94-19.09,1.61-24.49-.33-5.4-2.48-10.35-10.59-15.42-8.11-5.07-33.39-8.83-33.39-8.83-24.26-1.9-40.48,4.86-51.15,12.21,0,0-3.79,3.11-6.61,6.59l37.97,22.32Z" style="fill:#FF725E;"></path><g><path d="M220.32,207.34c.27-.36,4.71-6.47,2.18-12.98-2.53-6.52-18-17.64-18-17.64l-14.57,22.98,4.97,.81s-15.43,8.19-23.96,21.98l-9.81,13.91,13.41,11.56s33.41-29.48,36.95-32.54c3.54-3.06,8.82-8.07,8.82-8.07Z" style="fill:#ffbf9d;"></path><g><path d="M141.12,186.2c-10.44-4.12-17.05-14.76-15.5-25.87,.05-.37,.11-.74,.18-1.11,1.94-10.41,13.81-22.39,13.81-22.39,0,0,7.03-6.65,15.39-1.69,8.37,4.96,18.83,23.4,18.83,23.4,0,0,18.23,9.38,34.22,20.85l-14.95,21.49s-12.39-1.87-33.34-7.92c-9.19-2.65-14.53-5.14-18.65-6.76Z" style="fill:#263238;"></path><path d="M141.12,186.2s.32,.1,.93,.34c.62,.25,1.52,.6,2.68,1.06,2.35,.94,5.79,2.31,10.29,3.77,4.5,1.44,10.05,2.95,16.44,4.6,6.4,1.61,13.66,3.35,21.69,4.7l-.21,.09c4.54-6.55,9.58-13.81,14.92-21.51l.06,.34c-8.47-6.04-18.1-11.98-28.33-17.67-1.99-1.1-3.99-2.18-5.86-3.16l-.07-.04-.04-.07c-1.87-3.22-3.86-6.33-5.91-9.31-2.07-2.98-4.21-5.84-6.54-8.44-2.34-2.57-4.85-5.01-7.88-6.38-1.52-.64-3.15-.98-4.76-.98-1.61,0-3.2,.35-4.66,.95-1.46,.59-2.83,1.41-3.99,2.4-1.08,1.07-2.11,2.25-3.09,3.39-1.96,2.31-3.75,4.64-5.33,7-3.12,4.7-5.48,9.6-5.79,14.41-.19,2.39-.01,4.68,.42,6.79,.47,2.11,1.2,4.02,2.03,5.72,1.75,3.38,3.94,5.89,5.96,7.63,2.03,1.75,3.87,2.75,5.1,3.43,.63,.29,1.11,.52,1.45,.68,.33,.15,.49,.24,.49,.24,0,0-.18-.06-.51-.2-.35-.15-.84-.36-1.48-.63-1.25-.65-3.12-1.63-5.18-3.37-2.06-1.73-4.3-4.24-6.09-7.65-.85-1.72-1.6-3.65-2.09-5.78-.45-2.14-.65-4.46-.46-6.89,.29-4.9,2.67-9.88,5.79-14.62,1.58-2.38,3.37-4.73,5.34-7.06,1-1.16,1.99-2.31,3.13-3.45,1.22-1.04,2.61-1.87,4.12-2.49,1.51-.62,3.15-.98,4.83-.99,1.68,0,3.37,.34,4.96,1.01,3.15,1.42,5.7,3.9,8.06,6.49,2.36,2.62,4.51,5.5,6.59,8.48,2.07,2.99,4.06,6.11,5.94,9.35l-.11-.1c1.88,.98,3.87,2.06,5.87,3.16,10.25,5.69,19.89,11.65,28.37,17.72l.2,.14-.14,.2c-5.36,7.68-10.41,14.94-14.97,21.47l-.08,.12-.13-.02c-8.06-1.37-15.31-3.14-21.71-4.79-6.39-1.68-11.93-3.22-16.43-4.7-4.49-1.49-7.93-2.91-10.26-3.89-1.15-.49-2.04-.86-2.66-1.12-.29-.12-.51-.22-.68-.29-.15-.07-.23-.1-.23-.11Z" style="fill:#455a64;"></path></g><g><polygon points="169.9 254.73 183.58 240.14 168.85 225.45 155.91 243.85 156.15 252.19 164.42 256.97 169.9 254.73" style="fill:#e0e0e0;"></polygon><g><path d="M168.49,283.54s-6.17-3.65-9.85-8.32c-3.68-4.67-8.13-12.48-9.79-15.33-1.66-2.85-8.88-8.92-6.93-11.64,1.94-2.72,15.27-6.22,15.27-6.22,0,0-2,3.18,.32,5.47,2.32,2.29,7.88,5.76,7.88,5.76,0,0,4.98-.9,6.38,.35,1.4,1.25-2.91,4.43-2.91,4.43,0,0-1.55,7.7-.41,10.93,1.13,3.23,.51,3.98,2.94,6.71,2.43,2.74,2.64,4.93,2.64,4.93,0,0-1.04,3.27-2.41,3.38-1.37,.11-3.12-.45-3.12-.45Z" style="fill:#FF725E;"></path><path d="M171.69,283.98c-1.4,.27-3.23-.4-3.23-.4,0,0-6.17-3.65-9.85-8.32-3.68-4.67-8.13-12.48-9.79-15.33-1.66-2.85-8.88-8.92-6.93-11.64,.53-.75,1.23-1.34,2.11-1.78,0,0,4.6,8.68,7.79,11.97,3.18,3.29,7.5,12.62,11.06,16.37,3.56,3.75,8.46,7.15,8.46,7.15l1.83,.62c-.41,.66-.62,1.21-1.44,1.35Z" style="fill:#fff;"></path><path d="M168.3,267.51c-.06-.07-.7,.47-1.67,.7-.96,.25-1.78,.07-1.8,.16-.04,.07,.82,.4,1.87,.13,1.06-.26,1.66-.95,1.6-.99Z" style="fill:#fff;"></path><path d="M168.2,263.52c-.05-.08-.87,.51-2.05,.69-1.18,.19-2.14-.12-2.16-.03-.04,.06,.94,.53,2.21,.33,1.27-.19,2.07-.94,2.01-.99Z" style="fill:#fff;"></path><path d="M168.6,260.25c-.02-.09-.82,.07-1.81,.07-.99,0-1.79-.14-1.81-.06-.02,.07,.77,.37,1.81,.36,1.04,0,1.83-.3,1.81-.37Z" style="fill:#fff;"></path><path d="M151.35,251.83s.21,.43,.66,1.06c.44,.63,1.09,1.47,1.85,2.36,.76,.89,1.5,1.66,2.05,2.2,.55,.54,.92,.84,.95,.81,.06-.06-1.25-1.43-2.77-3.21-1.52-1.77-2.67-3.28-2.74-3.23Z" style="fill:#fff;"></path></g></g></g><g><path d="M220.09,162.66s15.63,39.07,20.85,44.21,42.98-2.35,42.98-2.35l1.21-15.85-33.82-.85s-9.71-28.66-10.48-33.76c-.78-5.09,1.03-15.9-3.38-17.88-4.42-1.97-21.51,1.77-20.62,16.58l3.27,9.89Z" style="fill:#e0e0e0;"></path><path d="M314.16,193.83s1.24,.46,.9-2.19c-.34-2.64-2.41-5.67-2.41-5.67,0,0-4.37-3.73-5.83-3.62-1.46,.12-12.67,6.12-12.67,6.12l-9.08,1.07-1.08,14.15,8.98-2.36s2.06,1.47,3.05,1.04c.99-.43,5.78-2.7,7.45-1.25l.26,2.35s4.28-.16,4.93-1.39c.65-1.23,.89-2.09,.89-2.09,0,0,2.2,.6,2.65-.54,.45-1.14,.07-3.01,.07-3.01,0,0,2-.96,1.89-2.62Z" style="fill:#ffbf9d;"></path></g></g></g></g><g id="freepik--Lines--inject-94"><g><path d="M396.27,292.9c0,.14-9.16,.26-20.45,.26s-20.45-.12-20.45-.26,9.16-.26,20.45-.26,20.45,.12,20.45,.26Z" style="fill:#263238;"></path><path d="M388.59,287.71c0,.14-9.16,.26-20.45,.26s-20.45-.12-20.45-.26,9.16-.26,20.45-.26,20.45,.12,20.45,.26Z" style="fill:#263238;"></path></g><g><path d="M580.51,335.57c0,.14-9.16,.26-20.45,.26s-20.45-.12-20.45-.26,9.16-.26,20.45-.26,20.45,.12,20.45,.26Z" style="fill:#263238;"></path><path d="M572.82,330.38c0,.14-9.16,.26-20.45,.26s-20.45-.12-20.45-.26,9.16-.26,20.45-.26,20.45,.12,20.45,.26Z" style="fill:#263238;"></path></g><path d="M236.04,343.16c0,.14-9.16,.26-20.45,.26s-20.45-.12-20.45-.26,9.16-.26,20.45-.26,20.45,.12,20.45,.26Z" style="fill:#263238;"></path><path d="M251.42,336.69c0,.14-9.16,.26-20.45,.26s-20.45-.12-20.45-.26,9.16-.26,20.45-.26,20.45,.12,20.45,.26Z" style="fill:#263238;"></path><path d="M55.9,290.3c0,.14-8.9,.26-19.87,.26s-19.87-.12-19.87-.26,8.89-.26,19.87-.26,19.87,.12,19.87,.26Z" style="fill:#263238;"></path><path d="M44.49,293.94c0,.14-9.16,.26-20.45,.26s-20.45-.12-20.45-.26,9.16-.26,20.45-.26,20.45,.12,20.45,.26Z" style="fill:#263238;"></path></g></svg>
